<?xml version="1.0" encoding="UTF-8"?>
<!-- Created with Inkscape (http://www.inkscape.org/) -->
<svg width="210mm" height="297mm" version="1.1" viewBox="0 0 210 297" xmlns="http://www.w3.org/2000/svg" xmlns:cc="http://creativecommons.org/ns#" xmlns:dc="http://purl.org/dc/elements/1.1/" xmlns:rdf="http://www.w3.org/1999/02/22-rdf-syntax-ns#">
 <metadata>
  <rdf:RDF>
   <cc:Work rdf:about="">
    <dc:format>image/svg+xml</dc:format>
    <dc:type rdf:resource="http://purl.org/dc/dcmitype/StillImage"/>
    <dc:title/>
   </cc:Work>
  </rdf:RDF>
 </metadata>
 <path d="m43.608 81.798c-0.02444-0.02446-0.04443-0.35433-0.04443-0.7331 0-0.56771 0.01756-0.68866 0.09997-0.68866 0.08185 0 0.09997 0.11471 0.09997 0.63312v0.63313h0.63313c0.51835 0 0.63313 0.01815 0.63313 0.09991 0 0.0824-0.12095 0.10004-0.68867 0.10004-0.37877 0-0.70866-0.01996-0.7331-0.04442zm1.9349 0.0026c-0.1261-0.12604 0.01262-0.15769 0.69203-0.15769 0.56123 0 0.73201 0.01996 0.71102 0.0833-0.0302 0.09103-1.3181 0.15934-1.4031 0.07442zm1.7994 0c-0.1261-0.12604 0.01262-0.15769 0.69203-0.15769 0.56122 0 0.73201 0.01996 0.71102 0.0833-0.0302 0.09103-1.3181 0.15934-1.4031 0.07442zm1.9327 0c-0.10811-0.10815-0.02848-0.1577 0.25329-0.1577h0.2999v-1.0252c0-0.96917-0.0073-1.0271-0.13329-1.0601-0.07975-0.02086-0.13329-0.09089-0.13329-0.17439 0-0.139-0.0091-0.13954-2.3715-0.13954-1.8675 0-2.3656-0.01764-2.3437-0.0833 0.02135-0.06412 0.56835-0.08729 2.3715-0.10081 2.0847-0.01558 2.3437-0.0291 2.3437-0.12282 0-0.05794 0.05998-0.12102 0.13329-0.14022 0.12601-0.03296 0.13329-0.0909 0.13329-1.0601v-1.0252h-0.30546c-0.39334 0-0.37024-0.15781 0.0274-0.18711l0.27806-0.02047v-16.924c0-14.999 0.01133-16.924 0.09997-16.924 0.0886 0 0.09997 1.9249 0.09997 16.924v16.924l0.31136 0.02034c0.44464 0.02897 0.46781 0.18693 0.02742 0.18693h-0.33878v1.033c0 1.004 0.0039 1.033 0.13953 1.033 0.08318 0 0.15352 0.05343 0.17416 0.13244 0.03362 0.12849 0.10318 0.13296 2.3708 0.14995 1.7971 0.01352 2.3426 0.03669 2.3639 0.10081 0.02185 0.06566-0.47524 0.0833-2.3391 0.0833h-2.3668l-0.02129 0.14995c-0.01369 0.0963-0.07488 0.15756-0.17125 0.17126-0.14811 0.02099-0.14995 0.03399-0.14995 1.0497v1.0284h0.33878c0.24133 0 0.33083 0.02395 0.31115 0.0833-0.0302 0.09102-1.3181 0.15934-1.4031 0.07442zm1.8861-0.05768c0-0.08961 0.10225-0.10171 0.71643-0.08549 0.42058 0.01159 0.71644 0.04648 0.71644 0.08549 0 0.03914-0.29585 0.07442-0.71644 0.08562-0.61419 0.01622-0.71643 0.0039-0.71643-0.08562zm1.846 0.05768c-0.1261-0.12604 0.01262-0.15769 0.69204-0.15769 0.56122 0 0.73201 0.01996 0.71102 0.0833-0.0302 0.09103-1.3181 0.15934-1.4031 0.07442zm1.9327 0c-0.12361-0.1236 0.0032-0.15769 0.58651-0.15769h0.63313v-0.63313c0-0.52456 0.01753-0.63312 0.10222-0.63312 0.0867 0 0.09936 0.10879 0.0833 0.71643l-0.01891 0.71643-0.66982 0.0188c-0.3684 0.0103-0.6908-0.0026-0.71643-0.02781zm3.7522-0.68852c0-0.60928 0.01715-0.73542 0.09997-0.73542 0.08185 0 0.09997 0.11471 0.09997 0.63312v0.63313h0.60536c0.45459 0 0.59848 0.02073 0.57773 0.0833-0.01912 0.05768-0.2365 0.08922-0.70533 0.10236l-0.6777 0.01892zm1.9795 0.68866c-0.12474-0.12476 0.0063-0.15783 0.62525-0.15783 0.5079 0 0.66526 0.02034 0.6444 0.0833-0.03017 0.09103-1.1853 0.15884-1.2696 0.07455zm1.7993 0c-0.1261-0.12604 0.01262-0.15769 0.69204-0.15769 0.56122 0 0.73201 0.02008 0.71102 0.0833-0.0302 0.09102-1.3181 0.15934-1.4031 0.07442zm1.8861-0.05562c0-0.07673 0.07482-0.10222 0.2999-0.10222h0.2999v-1.0252c0-0.96917-0.0073-1.0271-0.13329-1.0601-0.07975-0.02086-0.13329-0.09089-0.13329-0.17439 0-0.13904-0.0086-0.13954-2.4048-0.13954-1.8942 0-2.3989-0.01764-2.377-0.0833 0.02136-0.06412 0.57501-0.08729 2.4048-0.10081 2.1152-0.01558 2.377-0.0291 2.377-0.12282 0-0.05794 0.05998-0.12102 0.13329-0.14022 0.126-0.03296 0.13329-0.0909 0.13329-1.0601v-1.0252h-0.2999c-0.22215 0-0.2999-0.02588-0.2999-0.10004 0-0.07403 0.07775-0.09991 0.2999-0.09991h0.2999v-16.928c0-15.003 0.01133-16.928 0.09997-16.928 0.0886 0 0.09997 1.9249 0.09997 16.924v16.924l0.31656 0.02034c0.17411 0.01159 0.31656 0.05034 0.31656 0.08691 0 0.03669-0.14245 0.07583-0.31656 0.0869l-0.31656 0.02034v1.0294c0 1.0003 4e-3 1.0294 0.13953 1.0294 0.08318 0 0.15352 0.05343 0.17416 0.13243 0.0336 0.12849 0.10318 0.13296 2.3375 0.14995 1.7704 0.01352 2.3093 0.03682 2.3306 0.10081 0.02185 0.06553-0.46858 0.0833-2.3057 0.0833h-2.3335l-0.0213 0.14995c-0.01369 0.0963-0.07488 0.15756-0.17125 0.17126-0.14808 0.02099-0.14995 0.03412-0.14995 1.046v1.0247l0.31656 0.02034c0.59684 0.03824 0.33044 0.15324-0.39987 0.17252-0.60765 0.01609-0.71644 0.0039-0.71644-0.0833zm1.9327 0c0-0.08536 0.11206-0.10235 0.672-0.10235 0.5079 0 0.66526 0.02034 0.64439 0.0833-0.01895 0.05716-0.22992 0.08935-0.672 0.10235-0.54339 0.01609-0.64439 0.0026-0.64439-0.0833zm1.846 0.05536c-0.1261-0.12604 0.01262-0.15769 0.69203-0.15769 0.56122 0 0.73202 0.01995 0.71102 0.0833-0.03019 0.09103-1.3181 0.15934-1.4031 0.07442zm1.8657-6.7e-4c-0.11142-0.11137 0.08043-0.15732 0.65746-0.15732h0.6292v-0.63313c0-0.37766 0.0269-0.63313 0.06664-0.63313 0.04039 0 0.06665 0.28879 0.06665 0.7331v0.73309h-0.68866c-0.37877 0-0.70784-0.01918-0.73128-0.04262zm80.308 6.7e-4c-0.0256-0.02562-0.0467-0.35658-0.0467-0.73536 0-0.56771 0.0175-0.68866 0.0999-0.68866 0.0819 0 0.10004 0.11484 0.10004 0.63313v0.63313h0.60534c0.4546 0 0.5985 0.02073 0.57776 0.0833-0.0303 0.09102-1.2517 0.15912-1.3364 0.07442zm1.8012 0.0013c-0.11613-0.11613 0.082-0.15949 0.72748-0.15949 0.53142 0 0.6947 0.02021 0.67376 0.0833-0.0299 0.08987-1.3175 0.1599-1.4012 0.07622zm1.9327 0c-0.11613-0.11613 0.082-0.15949 0.72748-0.15949 0.53142 0 0.69469 0.02021 0.67376 0.0833-0.0297 0.08987-1.3175 0.1599-1.4012 0.07622zm1.8642-0.0013c-0.10802-0.10802-0.0283-0.15764 0.25335-0.15764h0.2999v-1.0252c0-0.96917-8e-3 -1.0271-0.13329-1.0601-0.0797-0.02086-0.13329-0.0909-0.13329-0.17439 0-0.139-9e-3 -0.13954-2.3714-0.13954-1.8675 0-2.3656-0.01777-2.3437-0.0833 0.0214-0.06412 0.56835-0.08729 2.3715-0.10081 2.0847-0.01558 2.3437-0.0291 2.3437-0.12283 0-0.05794 0.06-0.12102 0.13329-0.14022 0.12605-0.03296 0.13329-0.0909 0.13329-1.0601v-1.0252h-0.30545c-0.39334 0-0.37024-0.15781 0.0274-0.18711l0.27807-0.02047v-16.925c0-14.999 0.0116-16.924 0.0999-16.924 0.0886 0 0.10004 1.9249 0.10004 16.924v16.924l0.34464 0.02021c0.49365 0.02884 0.51686 0.18676 0.0274 0.18676h-0.37211v1.033c0 0.9824 6e-3 1.033 0.13095 1.033 0.072 0 0.16284 0.05961 0.20182 0.13244 0.0684 0.12772 0.15343 0.13306 2.4127 0.14995 1.8016 0.01352 2.3482 0.03669 2.3696 0.10081 0.0219 0.06566-0.47403 0.0833-2.333 0.0833h-2.3608l-0.076 0.16661c-0.0445 0.09772-0.13161 0.16661-0.21063 0.16661-0.1294 0-0.13472 0.04081-0.13472 1.033v1.033h0.3721c0.26799 0 0.36437 0.0233 0.34447 0.0833-0.0303 0.09102-1.3845 0.15956-1.4698 0.07429zm1.9306-0.0026c-0.12282-0.12283 0.0146-0.1555 0.65535-0.1555 0.57759 0 0.69977 0.01738 0.69977 0.09991 0 0.08214-0.11729 0.09991-0.65533 0.09991-0.36046 0-0.67535-0.01996-0.69979-0.04442zm1.935 0.0026c-0.1254-0.1254 9e-3 -0.15776 0.65865-0.15776 0.53456 0 0.69864 0.02021 0.67772 0.0833-0.0301 0.09102-1.2517 0.15912-1.3364 0.07442zm1.8194-0.05523c0-0.08446 0.10493-0.10235 0.59981-0.10235h0.59979v-0.63313c0-0.52456 0.0175-0.63312 0.10223-0.63312 0.0866 0 0.0994 0.10879 0.0833 0.71643l-0.0189 0.71643-0.68311 0.01906c-0.57794 0.01609-0.68311 0.0039-0.68311-0.0833zm3.7787 0.05536c-0.0256-0.02562-0.0466-0.3565-0.0466-0.73528 0-0.56771 0.0175-0.68866 0.10004-0.68866 0.0819 0 0.0999 0.11446 0.0999 0.63062v0.63063l0.61646 0.01918c0.35378 0.01159 0.61647 0.04751 0.61647 0.08575 0 0.07596-1.3133 0.13068-1.3863 0.05768zm1.8639-0.0026c-0.1236-0.1236 0.0176-0.15551 0.68866-0.15551 0.60721 0 0.7331 0.01712 0.7331 0.10004 0 0.0824-0.1209 0.09991-0.68867 0.09991-0.37876 0-0.70867-0.01996-0.73309-0.04442zm1.935 0.0026c-0.1254-0.1254 9e-3 -0.15777 0.65863-0.15777 0.53456 0 0.69865 0.02021 0.67772 0.0833-0.0301 0.09102-1.2517 0.15911-1.3364 0.07442zm1.7993-7.7e-5c-0.11279-0.11278-0.0218-0.15769 0.31994-0.15769h0.36654v-1.033c0-0.99277-5e-3 -1.033-0.13494-1.033-0.0827 0-0.15951-0.06463-0.19828-0.16662l-0.0633-0.16661h-2.3398c-1.8422 0-2.3339-0.01777-2.312-0.0833 0.0214-0.06412 0.56684-0.08729 2.3639-0.10081 2.2676-0.017 2.3372-0.02137 2.3708-0.14995 0.0206-0.07892 0.091-0.13244 0.17416-0.13244 0.13558 0 0.13952-0.0291 0.13952-1.0295v-1.0295l-0.34988-0.02021c-0.19244-0.01159-0.34989-0.05008-0.34989-0.08678 0-0.03669 0.15745-0.0757 0.34989-0.08678l0.34988-0.02021v-16.925c0-14.999 0.0116-16.924 0.10004-16.924 0.0886 0 0.0999 1.9249 0.0999 16.924v16.924l0.24477 0.02073c0.35158 0.02974 0.3746 0.1873 0.0274 0.1873h-0.27213v1.033c0 0.90077 0.0136 1.033 0.10621 1.033 0.0584 0 0.1218 0.05961 0.14084 0.13244 0.0336 0.12849 0.10313 0.13296 2.3708 0.14995 1.7971 0.01352 2.3426 0.03669 2.3639 0.10081 0.0219 0.06566-0.47617 0.0833-2.3437 0.0833-2.3624 0-2.3714 6.7e-4 -2.3714 0.13954 0 0.08343-0.0536 0.15353-0.13329 0.17439-0.12605 0.03296-0.13328 0.0909-0.13328 1.0601v1.0252h0.27213c0.18801 0 0.26359 0.02575 0.24451 0.0833-0.0303 0.09102-1.3181 0.15934-1.4031 0.07442zm1.9326-5.1e-5c-0.12668-0.12669 0.0157-0.15764 0.72542-0.15764 0.58789 0 0.76538 0.01983 0.74434 0.0833-0.0303 0.09102-1.3845 0.15956-1.4698 0.07429zm1.8661 0c-0.12669-0.12669 0.0157-0.15764 0.72541-0.15764 0.5879 0 0.7654 0.01983 0.74435 0.0833-0.0303 0.09102-1.3845 0.15956-1.4698 0.07429zm1.9306-0.0026c-0.12037-0.12038 5e-3 -0.1555 0.55537-0.1555h0.59981v-0.63313c0-0.51835 0.0182-0.63312 0.10004-0.63312 0.0828 0 0.0999 0.12592 0.0999 0.73309v0.7331h-0.65533c-0.36045 0-0.67535-0.01996-0.69977-0.04442zm-133.11-1.9765c-0.07102-0.18509 0.0032-1.3333 0.08805-1.3614 0.06329-0.02099 0.08331 0.14982 0.08331 0.71105 0 0.46298-0.02565 0.73865-0.06874 0.73865-0.0378 0-0.08398-0.03978-0.10262-0.08832zm12.6 0.01159c-0.06488-0.16907-0.0054-1.3571 0.06712-1.3394 0.08944 0.02189 0.12449 1.2854 0.03805 1.3718-0.04491 0.04493-0.07959 0.03425-0.10516-0.03244zm2.5452 0.03386c-0.02504-0.02511-0.04554-0.35794-0.04554-0.73976 0-0.52568 0.02023-0.68752 0.08331-0.6666 0.05729 0.01906 0.0893 0.23216 0.10251 0.68279 0.01775 0.60564-0.02706 0.8368-0.14028 0.72358zm12.55-0.68978c0-0.44431 0.02625-0.7331 0.06664-0.7331s0.06665 0.28879 0.06665 0.7331-0.02625 0.7331-0.06665 0.7331c-0.04039 0-0.06664-0.28879-0.06664-0.7331zm79.007 0.65593c-0.0649-0.16907-5e-3 -1.3571 0.0671-1.3394 0.0895 0.02189 0.1245 1.2854 0.0381 1.3718-0.0449 0.04493-0.0796 0.03425-0.10519-0.03244zm12.529 0c-0.0649-0.16907-5e-3 -1.3571 0.0671-1.3394 0.0895 0.02189 0.1245 1.2854 0.0381 1.3718-0.0449 0.04493-0.0796 0.03425-0.10519-0.03244zm2.5325 0c-0.0649-0.16907-5e-3 -1.3571 0.0671-1.3394 0.0895 0.02189 0.1245 1.2854 0.0381 1.3718-0.0449 0.04493-0.0796 0.03425-0.10519-0.03244zm12.529 0c-0.0649-0.16907-5e-3 -1.3571 0.0671-1.3394 0.0895 0.02189 0.1245 1.2854 0.0381 1.3718-0.0449 0.04493-0.0796 0.03425-0.10519-0.03244zm-134.31-2.572 0.01891-0.71643 0.71644-0.01893c0.60765-0.01609 0.71643-0.0039 0.71643 0.0833 0 0.08472-0.10857 0.10223-0.63313 0.10223h-0.63313v0.63313c0 0.52456-0.01754 0.63313-0.10223 0.63313-0.0867 0-0.09935-0.10879-0.08331-0.71644zm12.582 0.0833v-0.63313h-0.63868c-0.48126 0-0.63187-0.0206-0.61104-0.0833 0.01926-0.05806 0.24309-0.08909 0.73865-0.10223l0.71101-0.01893v0.73536c0 0.60922-0.01715 0.73536-0.09997 0.73536-0.08185 0-0.09997-0.11484-0.09997-0.63313zm2.5469-0.0833 0.01891-0.71643h0.6609c0.46948 0 0.66894 0.02408 0.68867 0.0833 0.02086 0.06257-0.12293 0.0833-0.57759 0.0833h-0.60536v0.63313c0 0.52456-0.01754 0.63313-0.10223 0.63313-0.0867 0-0.09935-0.10879-0.08331-0.71644zm12.582 0.08575v-0.63072l-0.63347-0.01905c-0.8809-0.02652-0.84532-0.14764 0.05033-0.17127l0.71644-0.01893v0.73536c0 0.4458-0.02625 0.73535-0.06665 0.73535-0.03973 0-0.06664-0.25468-0.06664-0.63072zm78.989-0.08575 0.0189-0.71643h0.6609c0.46948 0 0.66894 0.02408 0.68867 0.0833 0.0209 0.06257-0.12296 0.0833-0.5776 0.0833h-0.60535v0.63313c0 0.52456-0.0175 0.63313-0.10222 0.63313-0.0868 0-0.0994-0.10879-0.0833-0.71644zm12.515 0.0833v-0.63313h-0.59979c-0.49482 0-0.59981-0.0179-0.59981-0.10236 0-0.08652 0.10518-0.09939 0.68311-0.0833l0.68311 0.01905 0.0189 0.71643c0.0161 0.60765 4e-3 0.71644-0.0833 0.71644-0.0847 0-0.10222-0.10853-0.10222-0.63313zm2.5469-0.0833 0.0189-0.71643h0.68311c0.85817 0 0.92706 0.12553 0.0837 0.15245l-0.60017 0.01918v0.63063c0 0.5223-0.0175 0.63063-0.10223 0.63063-0.0868 0-0.0994-0.10879-0.0833-0.71644zm12.515 0.0833v-0.63313h-0.60536c-0.45459 0-0.59848-0.02073-0.57773-0.0833 0.0191-0.05768 0.2365-0.08909 0.70532-0.10236l0.6777-0.01905v0.73543c0 0.60928-0.0171 0.73543-0.0999 0.73543-0.0819 0-0.10003-0.11484-0.10003-0.63313zm-132.36-0.73581c0-0.08665 0.10824-0.09939 0.71101-0.0833 0.49556 0.01313 0.71939 0.04416 0.73865 0.10222 0.021 0.06334-0.14978 0.0833-0.71101 0.0833-0.61939 0-0.73865-0.01648-0.73865-0.10222zm1.8159 0.01893c0.01926-0.05806 0.24309-0.08909 0.73865-0.10222 0.60277-0.01609 0.71101-0.0039 0.71101 0.0833 0 0.08575-0.11926 0.10223-0.73865 0.10223-0.56123 0-0.73201-0.01996-0.71101-0.0833zm3.8489-0.01661c0-0.08961 0.10225-0.10171 0.71643-0.08562 0.42058 0.01159 0.71644 0.04648 0.71644 0.08562s-0.29585 0.07442-0.71644 0.08562c-0.61419 0.01622-0.71643 0.0039-0.71643-0.08562zm1.8161 0.01661c0.01983-0.05948 0.22474-0.0833 0.71643-0.0833 0.49169 0 0.69661 0.02382 0.71644 0.0833 0.02111 0.06334-0.15069 0.0833-0.71644 0.0833-0.56574 0-0.73754-0.01996-0.71643-0.0833zm7.6475-0.01661c0-0.08214 0.11849-0.09991 0.66645-0.09991 0.54797 0 0.66645 0.01777 0.66645 0.09991s-0.11849 0.10004-0.66645 0.10004c-0.54797 0-0.66645-0.01777-0.66645-0.10004zm1.8159 0.01661c0.01926-0.05806 0.24309-0.08909 0.73865-0.10222 0.60277-0.01609 0.71101-0.0039 0.71101 0.0833 0 0.08575-0.11926 0.10223-0.73865 0.10223-0.56123 0-0.73201-0.01996-0.71101-0.0833zm3.8489-0.01905c0-0.08639 0.101-0.09939 0.64439-0.0833 0.44208 0.01313 0.65306 0.04519 0.672 0.10235 0.02087 0.06296-0.13649 0.0833-0.64439 0.0833-0.55995 0-0.672-0.01712-0.672-0.10235zm1.8161 0.01905c0.01983-0.05948 0.22474-0.0833 0.71644-0.0833 0.49169 0 0.69661 0.02382 0.71643 0.0833 0.0211 0.06334-0.15069 0.0833-0.71643 0.0833-0.56574 0-0.73754-0.01996-0.71644-0.0833zm83.989 0.01622c-0.0686-0.11111 0.11214-0.13911 0.76632-0.11883 0.42457 0.01313 0.63151 0.04583 0.65034 0.10261 0.0346 0.10467-1.3522 0.12051-1.4167 0.01622zm1.9327 0c-0.0686-0.11111 0.11214-0.13911 0.76632-0.11883 0.42457 0.01313 0.63152 0.04583 0.65035 0.10261 0.0346 0.10467-1.3522 0.12051-1.4167 0.01622zm3.7823-0.01622c0.0191-0.05768 0.23651-0.08909 0.70533-0.10235 0.57308-0.01609 0.6777-0.0026 0.6777 0.0833 0 0.08549-0.11561 0.10235-0.70533 0.10235-0.53456 0-0.69863-0.02021-0.6777-0.0833zm1.9327 0c0.019-0.05768 0.23651-0.08909 0.70533-0.10235 0.57308-0.01609 0.6777-0.0026 0.6777 0.0833 0 0.08549-0.11561 0.10235-0.70533 0.10235-0.53456 0-0.69864-0.02021-0.6777-0.0833zm7.4643 0c0.0193-0.05806 0.2431-0.08909 0.73866-0.10222 0.60277-0.01609 0.71101-0.0039 0.71101 0.0833 0 0.08575-0.11922 0.10223-0.73865 0.10223-0.56124 0-0.73202-0.01996-0.71102-0.0833zm1.9328 0c0.0197-0.05909 0.21807-0.0833 0.6831-0.0833 0.46504 0 0.66342 0.0242 0.68311 0.0833 0.0211 0.06322-0.14401 0.0833-0.68311 0.0833-0.53907 0-0.70417-0.02008-0.6831-0.0833zm3.7321 0c0.0199-0.05974 0.23141-0.0833 0.74976-0.0833s0.72982 0.02356 0.74975 0.0833c0.0211 0.06347-0.15736 0.0833-0.74975 0.0833-0.59241 0-0.77093-0.01983-0.74976-0.0833zm1.8653 0.0026c0.0209-0.06244 0.21999-0.08549 0.73938-0.08549 0.97861 0 0.96866 0.12772-0.0116 0.15219-0.59215 0.01481-0.74988 6.57e-4 -0.72754-0.06669zm-130.57-0.98563v-0.46652l0.2166 0.0026c0.22866 0.0026 0.44986 0.12772 0.44986 0.25514 0 0.04171-0.03599 0.07596-0.07998 0.07596-0.0622 0-0.0622 0.01777 0 0.07995 0.21694 0.21694 0.01391 0.51983-0.34846 0.51983h-0.23802v-0.46652zm0.39987 0.16661c0-0.05497-0.04498-0.10004-0.09997-0.10004-0.05497 0-0.09997 0.04493-0.09997 0.10004 0 0.05497 0.04498 0.09991 0.09997 0.09991 0.05498 0 0.09997-0.04493 0.09997-0.09991zm0-0.33322c0-0.05497-0.04498-0.10004-0.09997-0.10004-0.05497 0-0.09997 0.04493-0.09997 0.10004 0 0.05498 0.04498 0.09991 0.09997 0.09991 0.05498 0 0.09997-0.04493 0.09997-0.09991zm0.33323 0.55244c0-0.15514 0.29983-0.85235 0.36655-0.85235 0.06672 0 0.36655 0.69721 0.36655 0.85235 0 0.04442-0.04498 0.08073-0.09997 0.08073-0.05554 0-0.09997-0.05922-0.09997-0.13329 0-0.09772-0.04443-0.13329-0.16661-0.13329-0.12218 0-0.16661 0.03553-0.16661 0.13329 0 0.07403-0.04443 0.13329-0.09997 0.13329-0.05497 0-0.09997-0.03631-0.09997-0.08073zm0.41335-0.5006c-0.03113-0.16287-0.03993-0.16798-0.08604-0.04995-0.07555 0.19333-0.07062 0.23138 0.03 0.23138 0.06282 0 0.08005-0.05588 0.05604-0.1814zm0.66295 0.42426c-0.0055-0.10467-0.09996-0.30395-0.20992-0.44279-0.10996-0.13884-0.19994-0.27061-0.19994-0.29282 0-0.09811 0.20203-0.02768 0.26658 0.09283 0.03923 0.07326 0.11325 0.13329 0.16447 0.13329 0.05123 0 0.11216-0.06 0.13544-0.13329 0.04484-0.1413 0.23326-0.18676 0.23326-0.05626 0 0.04236-0.07247 0.17203-0.16105 0.28816-0.08858 0.11613-0.17406 0.29891-0.18995 0.40616l-0.02889 0.19501zm0.65647 0.0618c0-0.09708 0.17284-0.30424 0.25468-0.30518 0.02487 0 0.07989-0.07532 0.12226-0.16661 0.06597-0.14223 0.0607-0.1661-0.03665-0.1661-0.06253 0-0.14918 0.03553-0.19255 0.07892-0.10646 0.10648-0.16997 0.02948-0.116-0.14049 0.03319-0.10454 0.09966-0.13831 0.27267-0.13831 0.21861 0 0.22877 0.0103 0.22877 0.2421 0 0.16488-0.04577 0.2818-0.14349 0.36656l-0.14349 0.1245h0.14348c0.08312 0 0.14349 0.0421 0.14349 0.09991 0 0.07223-0.07406 0.10004-0.26658 0.10004-0.1866 0-0.26658-0.02858-0.26658-0.09527zm12.663-0.37131v-0.46652h0.2251c0.27192 0 0.35499 0.09193 0.36138 0.39988 0.0097 0.4673-0.02997 0.53316-0.32116 0.53316h-0.26531zm0.39987 0.16661c0-0.05497-0.04498-0.10004-0.09997-0.10004-0.05498 0-0.09997 0.04493-0.09997 0.10004 0 0.05497 0.04498 0.09991 0.09997 0.09991s0.09997-0.04493 0.09997-0.09991zm0-0.33322c0-0.05498-0.04498-0.10004-0.09997-0.10004-0.05498 0-0.09997 0.04493-0.09997 0.10004 0 0.05497 0.04498 0.09991 0.09997 0.09991s0.09997-0.04493 0.09997-0.09991zm0.27769 0.58288c0.01223-0.02768 0.09704-0.23757 0.18849-0.46652 0.09145-0.22895 0.19657-0.41627 0.2336-0.41627 0.06672 0 0.36655 0.69721 0.36655 0.85235 0 0.04442-0.04498 0.08072-0.09997 0.08072-0.05554 0-0.09997-0.05922-0.09997-0.13329 0-0.09772-0.04443-0.13329-0.16661-0.13329-0.12218 0-0.16661 0.03553-0.16661 0.13329 0 0.09064-0.04443 0.13329-0.13884 0.13329-0.07636 0-0.12885-0.02266-0.11663-0.05021zm0.46889-0.53103c-0.03113-0.16287-0.03993-0.16798-0.08604-0.04995-0.07555 0.19333-0.07062 0.23138 0.03 0.23138 0.06282 0 0.08006-0.05588 0.05604-0.1814zm0.66296 0.42426c-0.0055-0.10467-0.09996-0.30395-0.20992-0.44279-0.10996-0.13884-0.19994-0.27061-0.19994-0.29282 0-0.09811 0.20203-0.02768 0.26658 0.09283 0.03923 0.07326 0.11325 0.13329 0.16447 0.13329 0.05122 0 0.11216-0.06 0.13544-0.13329 0.04484-0.1413 0.23326-0.18676 0.23326-0.05626 0 0.04236-0.07247 0.17203-0.16106 0.28816-0.08858 0.11613-0.17406 0.29891-0.18995 0.40616l-0.0289 0.19501zm0.72311-0.02292c0-0.13996 0.01777-0.16217 0.07998-0.09991 0.11255 0.11252 0.3199 0.09965 0.3199-0.01996 0-0.05549-0.05924-0.10004-0.13329-0.10004-0.07331 0-0.13329-0.03-0.13329-0.06669s0.02999-0.06669 0.06664-0.06669 0.06664-0.04493 0.06664-0.09991c0-0.12051-0.07776-0.12884-0.18661-0.01996-0.0622 0.06218-0.07998 0.04004-0.07998-0.09991 0-0.1612 0.02427-0.17994 0.23326-0.17994 0.22566 0 0.23326 0.0077 0.23326 0.25325 0 0.13929 0.03598 0.28924 0.07998 0.33324 0.0622 0.06218 0.0622 0.07995 0 0.07995-0.04398 0-0.07998 0.06-0.07998 0.13329 0 0.10789-0.04443 0.13329-0.23326 0.13329-0.20898 0-0.23326-0.01867-0.23326-0.17994zm88.905-0.28658v-0.46652l0.24993 0.0026c0.36061 0.0026 0.63486 0.2492 0.39986 0.35887-0.0667 0.03116-0.0667 0.04661 0 0.07776 0.1124 0.0524 0.10557 0.28166-0.0116 0.39908-0.0524 0.0524-0.21731 0.09515-0.36655 0.09515h-0.27134v-0.46652zm0.46652 0.16661c0-0.05497-0.0449-0.10004-0.10004-0.10004-0.055 0-0.0999 0.04493-0.0999 0.10004 0 0.05497 0.0449 0.09991 0.0999 0.09991s0.10004-0.04493 0.10004-0.09991zm0-0.33322c0-0.05498-0.0449-0.10004-0.10004-0.10004-0.055 0-0.0999 0.04493-0.0999 0.10004 0 0.05497 0.0449 0.09991 0.0999 0.09991s0.10004-0.04493 0.10004-0.09991zm0.27769 0.58288c0.0116-0.02768 0.0971-0.23757 0.18849-0.46652 0.0914-0.22895 0.19656-0.41627 0.23359-0.41627 0.0371 0 0.14215 0.18732 0.2336 0.41627 0.0914 0.22895 0.17627 0.43887 0.18848 0.46652 0.0129 0.02768-0.0403 0.05021-0.11664 0.05021-0.0944 0-0.13886-0.04261-0.13886-0.13329 0-0.09772-0.0444-0.13329-0.16661-0.13329-0.12218 0-0.16661 0.03553-0.16661 0.13329 0 0.09064-0.0444 0.13329-0.13884 0.13329-0.0763 0-0.12885-0.02266-0.11665-0.05021zm0.47172-0.51624c-0.0175-0.09167-0.0399-0.16661-0.0497-0.16661-0.0103 0-0.0321 0.07493-0.0496 0.16661-0.02 0.10429-1e-3 0.16661 0.0496 0.16661 0.051 0 0.0695-0.06231 0.0497-0.16661zm0.66012 0.4121c-5e-3 -0.10326-0.085-0.28603-0.17659-0.40616-0.17225-0.22584-0.21311-0.37248-0.10377-0.37248 0.0345 0 0.10892 0.06579 0.16524 0.14618l0.10236 0.14619 0.1556-0.14619c0.28751-0.27009 0.34575-0.12167 0.0859 0.219-0.0886 0.11613-0.17406 0.29891-0.18996 0.40616l-0.0288 0.19501zm0.76356 0.04892c-0.0223-0.05794-0.0404-0.22048-0.0404-0.3611 0-0.3557 0.056-0.46652 0.23591-0.46652 0.14729 0 0.29468 0.22474 0.20572 0.31368-0.0203 0.02034-8e-3 0.09141 0.0276 0.15779 0.095 0.1775-0.0524 0.46156-0.23947 0.46156-0.0819 0-0.167-0.04751-0.18925-0.10544zm0.28009-0.21115c-0.027-0.14048-0.14533-0.13162-0.17547 0.01313-0.0129 0.06038 0.0242 0.10351 0.0882 0.10351 0.0686 0 0.10133-0.04364 0.0873-0.11664zm-5e-3 -0.39016c-0.0221-0.02214-0.0797-0.02446-0.12772-0.0052-0.0532 0.02124-0.0373 0.03708 0.0403 0.0403 0.0703 0.0026 0.10957-0.01288 0.0874-0.03502zm12.281 0.23637v-0.47034l0.56647 0.04094 0.0394 0.89971h-0.6059zm0.46651 0.17045c0-0.06219-0.063-0.10004-0.16661-0.10004-0.10364 0-0.16661 0.03772-0.16661 0.10004 0 0.06218 0.063 0.09991 0.16661 0.09991 0.10364 0 0.16661-0.03772 0.16661-0.09991zm0-0.33322c0-0.06218-0.063-0.10004-0.16661-0.10004-0.10364 0-0.16661 0.03772-0.16661 0.10004 0 0.06218 0.063 0.09991 0.16661 0.09991 0.10364 0 0.16661-0.03772 0.16661-0.09991zm0.26657 0.53506c0-0.12411 0.31206-0.83497 0.36656-0.83497s0.36655 0.71083 0.36655 0.83497c0 0.14597-0.1404 0.11858-0.18064-0.03528-0.0219-0.08381-0.0909-0.13329-0.18591-0.13329-0.095 0-0.164 0.04944-0.18592 0.13329-0.0402 0.15383-0.18064 0.1812-0.18064 0.03528zm0.46652-0.33119c0-0.0703-0.12784-0.09991-0.16593-0.03837-0.023 0.03721 5e-3 0.06772 0.0621 0.06772 0.0572 0 0.1039-0.01326 0.1039-0.02935zm0.53317 0.21895c0-0.12167-0.0703-0.30239-0.16661-0.42874-0.19881-0.26066-0.20396-0.29398-0.0455-0.29398 0.0705 0 0.16285 0.08794 0.22084 0.2104l0.0996 0.21039 0.0872-0.21039c0.0541-0.13051 0.1347-0.2104 0.21236-0.2104 0.1628 0 0.15826 0.03219-0.0415 0.29398-0.0964 0.1263-0.16661 0.3071-0.16661 0.42874 0 0.14251-0.0322 0.21031-0.10004 0.21031-0.0677 0-0.0999-0.06785-0.0999-0.21031zm0.79974 0.157c0-0.02935 0.0272-0.08176 0.0605-0.11664 0.0332-0.03489 0.0908-0.17578 0.12798-0.31323 0.0644-0.23852 0.0601-0.24992-0.0937-0.24992-0.0989 0-0.16124-0.03862-0.16124-0.09991 0-0.07403 0.0778-0.09991 0.2999-0.09991 0.32106 0 0.37396 0.07429 0.1943 0.27282-0.0581 0.06424-0.12206 0.23899-0.14208 0.38847-0.0279 0.20793-0.0657 0.27175-0.16096 0.27175-0.0685 0-0.1245-0.02395-0.1245-0.0533zm-140.61-1.2908c0.01313-0.46882 0.04466-0.68621 0.1023-0.70533 0.06256-0.02073 0.08331 0.12321 0.08331 0.57774v0.60536h0.63313c0.51835 0 0.63313 0.01815 0.63313 0.09991 0 0.08279-0.12615 0.10004-0.73543 0.10004h-0.73543zm1.8861 0.61279c-0.02356-0.03811-0.0013-0.08523 0.04944-0.10467 0.16244-0.06231 1.4157-6.69e-4 1.4157 0.06965 0 0.09205-1.4091 0.12579-1.4651 0.03502zm1.9148-0.01841c0.01854-0.056 0.21624-0.08961 0.6028-0.10248l0.57521-0.01918 0.01922-0.57522c0.01291-0.38656 0.04654-0.58426 0.10252-0.6028 0.06314-0.02086 0.08331 0.14318 0.08331 0.67773v0.70533h-0.70533c-0.53455 0-0.69865-0.02021-0.67773-0.0833zm50.367-0.62202c0-0.53455 0.02017-0.69865 0.08331-0.67773 0.05598 0.01854 0.08961 0.21623 0.10252 0.6028l0.01921 0.57522 0.57521 0.01918c0.38656 0.01287 0.58426 0.04648 0.6028 0.10248 0.02091 0.06309-0.14318 0.0833-0.67773 0.0833h-0.70532zm1.8457 0.6627c-0.11363-0.11368 0.08746-0.1573 0.72411-0.1573 0.5741 0 0.69584 0.01751 0.69584 0.09991s-0.12094 0.10004-0.68866 0.10004c-0.37877 0-0.70784-0.01918-0.73128-0.04261zm1.8865-0.05729c0-0.08188 0.11478-0.09991 0.63313-0.09991h0.63313v-0.60536c0-0.4546 0.02074-0.59848 0.08331-0.57774 0.05763 0.01918 0.08916 0.23651 0.1023 0.70533l0.01899 0.6777h-0.73543c-0.60928 0-0.73543-0.01712-0.73543-0.10004zm48.718-0.59762c0-0.57953 0.0174-0.70196 0.10004-0.70196 0.0814 0 0.0999 0.11085 0.0999 0.59739v0.5974l0.64978 0.01905c0.90742 0.02665 0.83675 0.14767-0.0999 0.17121l-0.74977 0.0188zm1.9492 0.61428c0.019-0.05768 0.23651-0.08909 0.70533-0.10236 0.57308-0.01609 0.6777-0.0026 0.6777 0.0833 0 0.08549-0.11562 0.10235-0.70533 0.10235-0.53456 0-0.69864-0.02021-0.6777-0.0833zm1.9327 0c0.0183-0.05536 0.21022-0.08974 0.57203-0.10261l0.54446-0.01931v-0.59711c0-0.48634 0.0185-0.59712 0.10004-0.59712 0.0825 0 0.0999 0.12218 0.0999 0.69977v0.69978h-0.672c-0.50789 0-0.66528-0.02034-0.64442-0.0833zm50.234-0.61428c0-0.57953 0.0174-0.70196 0.0999-0.70196 0.0814 0 0.10004 0.11085 0.10004 0.59739v0.5974l0.64979 0.01905c0.90741 0.02665 0.83673 0.14767-0.10004 0.17121l-0.74975 0.0188zm1.9327 0.59529c0-0.08652 0.10467-0.09939 0.6777-0.0833 0.46882 0.01313 0.68621 0.04468 0.70532 0.10235 0.021 0.06309-0.14313 0.0833-0.6777 0.0833-0.58967 0-0.70532-0.01674-0.70532-0.10235zm1.9492 0.01905c0.0183-0.05536 0.21021-0.08974 0.57203-0.10261l0.54446-0.01931v-0.59711c0-0.48634 0.0185-0.59712 0.0999-0.59712 0.0825 0 0.10004 0.12218 0.10004 0.69977v0.69978h-0.672c-0.50788 0-0.66528-0.02034-0.64443-0.0833zm-162.1-3.4768c0-2.3624-5.34e-4 -2.3715-0.13953-2.3715-0.08348 0-0.15353-0.05356-0.17438-0.13329-0.03288-0.12579-0.09091-0.13329-1.0268-0.13329h-0.9919v0.30545c0 0.21467-0.02476 0.29725-0.08331 0.27784-0.05763-0.01906-0.08916-0.23651-0.1023-0.70533-0.01607-0.57308-0.0032-0.6777 0.08331-0.6777 0.07681 0 0.1023 0.07467 0.1023 0.2999v0.2999h0.99504c0.98116 0 0.99534-0.0026 1.0163-0.14995 0.01369-0.0963 0.07488-0.15756 0.17125-0.17125l0.14995-0.02124v-2.3335c0-1.8372 0.01772-2.3276 0.0833-2.3058 0.06405 0.02137 0.08735 0.5617 0.10084 2.3381 0.01523 2.0073 0.03072 2.3104 0.11806 2.3104 0.0553 0 0.13469 0.07493 0.17645 0.16661 0.07583 0.16644 0.07688 0.16661 1.0316 0.16661h0.95566v-0.2999c0-0.22215 0.02592-0.2999 0.09997-0.2999 0.07406 0 0.09997 0.07776 0.09997 0.2999v0.2999h1.7994v-13.196c0-11.695 0.01133-13.196 0.10013-13.196 0.0888 0 0.09823 1.5027 0.08331 13.279l-0.01683 13.279-1.966 0.03682v0.30368c0 0.39191-0.15789 0.36728-0.18711-0.02923l-0.0205-0.27807h-0.98807c-0.93202 0-0.99005 0.0077-1.0229 0.13329-0.01917 0.07326-0.08227 0.13329-0.14021 0.13329-0.09372 0-0.10729 0.25896-0.12286 2.3437-0.01347 1.8031-0.03673 2.3501-0.10082 2.3715-0.06561 0.02189-0.0833-0.47617-0.0833-2.3437zm54.116 0c0-2.3624-6.66e-4 -2.3715-0.13953-2.3715-0.08348 0-0.15353-0.05356-0.17439-0.13329-0.0328-0.1254-0.09091-0.13329-0.9896-0.13329h-0.95475l-0.0205 0.27807c-0.0293 0.39762-0.18711 0.42072-0.18711 0.02742v-0.30545h-1.9327v-13.296c0-11.774 0.01146-13.296 0.09997-13.296 0.08853 0 0.09997 1.5106 0.09997 13.196v13.196h1.7328v-0.2999c0-0.22215 0.02592-0.2999 0.09997-0.2999 0.07404 0 0.09997 0.07776 0.09997 0.2999v0.2999h0.96172c0.9466 0 0.96206-0.0026 0.98302-0.14995 0.01369-0.0963 0.07488-0.15756 0.17125-0.17125l0.14995-0.02124v-2.3335c0-1.8372 0.01773-2.3276 0.08331-2.3058 0.06405 0.02137 0.08735 0.56018 0.10082 2.3306 0.01699 2.2343 0.02146 2.3039 0.14995 2.3375 0.11068 0.02897 0.13244 0.09141 0.13244 0.38033 0 0.28892-0.02176 0.35139-0.13244 0.38035-0.12857 0.0336-0.13296 0.10313-0.14995 2.3708-0.01347 1.7971-0.03673 2.3426-0.10081 2.3639-0.06561 0.02189-0.08331-0.47617-0.08331-2.3437zm52.559 2.3141c-0.0234-0.02343-0.0426-1.0838-0.0426-2.3563 0-2.2577-3e-3 -2.3145-0.1333-2.3486-0.11162-0.02922-0.13329-0.09089-0.13329-0.38056 0-0.28966 0.0216-0.35135 0.13329-0.38055 0.13008-0.03399 0.1333-0.0909 0.1333-2.3597 0-2.0221 0.013-2.3248 0.0999-2.3248s0.10003 0.30308 0.10003 2.3279v2.328l0.14995 0.02124c0.0964 0.01365 0.15757 0.07493 0.17125 0.17125 0.021 0.1476 0.0364 0.14995 0.98302 0.14995h0.96171v-0.2999c0-0.22215 0.0259-0.2999 0.10004-0.2999 0.074 0 0.0999 0.07776 0.0999 0.2999v0.2999h1.7328v-13.196c0-11.695 0.0116-13.196 0.10017-13.196 0.0888 0 0.0982 1.5027 0.0833 13.279l-0.0169 13.279-0.94594 0.01841-0.94595 0.01854-0.0205 0.28143c-0.0265 0.36528-0.14771 0.36402-0.17418-0.0013l-0.0205-0.28324h-0.95475c-0.8987 0-0.95679 0.0077-0.9896 0.13329-0.0209 0.0797-0.0909 0.13329-0.17439 0.13329-0.13895 0-0.13953 0.0103-0.13953 2.3286 0 2.1124-0.0251 2.4891-0.15731 2.3569zm54.116 0c-0.0234-0.02343-0.0426-1.0873-0.0426-2.3641 0-2.0797-0.0116-2.3215-0.10622-2.3215-0.0584 0-0.12192-0.06-0.14107-0.13329-0.0329-0.12592-0.0909-0.13329-1.0562-0.13329h-1.0214l-0.0205 0.28324c-0.0265 0.36582-0.14772 0.36708-0.1742 0.0013l-0.0205-0.28143-0.94595-0.01854-0.94595-0.01841-0.0169-9.9057c-0.0167-9.8372-0.0178-9.906-0.14995-9.9406-0.1115-0.0291-0.13308-0.09103-0.13308-0.3805 0-0.28966 0.0216-0.35135 0.13329-0.38056 0.13077-0.03425 0.1333-0.0909 0.1333-2.9928 0-2.5848 0.0129-2.9579 0.0999-2.9579 0.0874 0 0.0999 0.37395 0.0999 2.9657 0 2.9655 2e-5 2.9657 0.13953 2.9657 0.0834 0 0.15353 0.05356 0.17439 0.13328 0.0345 0.13215 0.0909 0.13329 6.525 0.13329h6.4901v-38.846l-0.31656-0.020343c-0.17411-0.011587-0.31657-0.05034-0.31657-0.086905 0-0.036693 0.14246-0.075832 0.31657-0.086905l0.31656-0.020342v-1.9953l-0.16661-0.063344c-0.0917-0.034891-0.16661-0.10905-0.16661-0.16496 0-0.089093-0.28677-0.10158-2.3326-0.10158-2.029 0-2.3326-0.013003-2.3326-0.10004 0-0.086905 0.30309-0.10004 2.3279-0.10004h2.328l0.0212-0.14995c0.0192-0.13475 0.0584-0.14995 0.38784-0.14995 0.32939 0 0.36871 0.015192 0.38785 0.14995l0.0213 0.14995h2.4001c1.8905 0 2.3942 0.017638 2.3724 0.0833-0.0214 0.064116-0.575 0.087291-2.4048 0.10081-2.0692 0.015192-2.377 0.030513-2.377 0.11832 0 0.05549-0.0749 0.12928-0.16661 0.16411l-0.16662 0.063344v2.0027h0.3721c0.48939 0 0.46618 0.15791-0.0274 0.18676l-0.34464 0.020085v39.047h-6.5646c-6.5433 0-6.5645 4.64e-4 -6.5645 0.13472 0 0.07905-0.0689 0.1661-0.16661 0.21063l-0.16661 0.07596v19.572h1.7328v-0.2999c0-0.22215 0.0259-0.2999 0.0999-0.2999s0.10004 0.07776 0.10004 0.2999v0.2999h1.033c1.004 0 1.033-0.0039 1.033-0.13954 0-0.08343 0.0536-0.15353 0.13329-0.17438 0.13007-0.03399 0.13329-0.0909 0.13329-2.3597 0-2.0221 0.013-2.3248 0.0999-2.3248s0.10004 0.30308 0.10004 2.3279v2.328l0.14995 0.02124c0.0963 0.01365 0.15756 0.07493 0.17125 0.17125 0.021 0.1476 0.0364 0.14995 0.98301 0.14995h0.96172v-0.2999c0-0.22519 0.0255-0.2999 0.10235-0.2999 0.0865 0 0.0994 0.10519 0.0833 0.68311-0.019 0.68597-0.13299 0.94964-0.17278 0.39988l-0.0205-0.28324h-0.95475c-0.8987 0-0.95679 0.0077-0.98961 0.13329-0.0208 0.0797-0.0909 0.13329-0.17439 0.13329-0.13894 0-0.13952 0.0103-0.13952 2.3286 0 2.1124-0.0251 2.4891-0.15732 2.3569zm-163.29-0.63738c-0.07268-0.18941 5.33e-4 -1.4041 0.08634-1.4325 0.10486-0.03476 0.12073 1.4187 0.0162 1.4833-0.03691 0.02279-0.08305-3.9e-5 -0.10252-0.05086zm4.9984 0c-0.07268-0.18941 5.33e-4 -1.4041 0.08634-1.4325 0.10486-0.03476 0.12073 1.4187 0.01618 1.4833-0.03691 0.02279-0.08306-3.9e-5 -0.10252-0.05086zm49.199 0.04055c-0.02504-0.0251-0.04554-0.37293-0.04554-0.77309 0-0.55234 0.02006-0.72088 0.08331-0.69991 0.05776 0.01918 0.08916 0.23876 0.10242 0.71621 0.01765 0.63572-0.02594 0.87103-0.14019 0.75679zm4.9984 0c-0.02504-0.0251-0.04554-0.37293-0.04554-0.77309 0-0.55234 0.02006-0.72088 0.08331-0.69991 0.05776 0.01918 0.08917 0.23876 0.10242 0.71621 0.01765 0.63572-0.02594 0.87103-0.14019 0.75679zm47.436-0.04055c-0.0726-0.18941 6.7e-4 -1.4041 0.0864-1.4325 0.10493-0.03476 0.12077 1.4187 0.0162 1.4833-0.0369 0.02279-0.083-3.9e-5 -0.10249-0.05086zm4.9984 0c-0.0726-0.18941 6.6e-4 -1.4041 0.0864-1.4325 0.1048-0.03476 0.12076 1.4187 0.0162 1.4833-0.037 0.02279-0.083-3.9e-5 -0.10249-0.05086zm49.12 0.0064c-0.0641-0.16697-5e-3 -1.39 0.0671-1.3899 0.0897 3.8e-5 0.1254 1.3348 0.038 1.4222-0.0448 0.0448-0.0794 0.03412-0.10493-0.03231zm4.9984 0c-0.0641-0.16697-5e-3 -1.39 0.0671-1.3899 0.0897 3.8e-5 0.1254 1.3348 0.038 1.4222-0.0448 0.0448-0.0796 0.03412-0.10493-0.03231zm-165.75-1.8767c-0.06011-0.15666 0.0023-1.3782 0.07129-1.3951 0.04063-0.0103 0.074 0.27637 0.08549 0.73344 0.01249 0.49734-5e-3 0.74976-0.05208 0.74976-0.03901 0-0.08612-0.03965-0.10471-0.08806zm4.9984 0c-0.06011-0.15666 0.0023-1.3782 0.07129-1.3951 0.04063-0.0103 0.074 0.27637 0.08549 0.73344 0.01249 0.49734-5e-3 0.74976-0.05208 0.74976-0.03901 0-0.08612-0.03965-0.10471-0.08806zm49.155-0.67837c0-0.59239 0.01984-0.77092 0.08331-0.74976 0.0598 0.01996 0.08331 0.23141 0.08331 0.74976s-0.0235 0.72983-0.08331 0.74976c-0.06347 0.02111-0.08331-0.15736-0.08331-0.74976zm4.9984 0c0-0.59239 0.01984-0.77092 0.08331-0.74976 0.0598 0.01996 0.0833 0.23141 0.0833 0.74976s-0.0235 0.72983-0.0833 0.74976c-0.06347 0.02111-0.08331-0.15736-0.08331-0.74976zm47.484 0.68951c-0.0641-0.16697-5e-3 -1.39 0.0671-1.3899 0.0897 3.9e-5 0.1254 1.3348 0.038 1.4222-0.0448 0.0448-0.0794 0.03412-0.10492-0.03232zm4.9984 0c-0.0641-0.16697-5e-3 -1.39 0.0671-1.3899 0.0897 3.9e-5 0.1254 1.3348 0.038 1.4222-0.0448 0.0448-0.0796 0.03412-0.10493-0.03232zm49.117 0c-0.0641-0.16697-5e-3 -1.39 0.0671-1.3899 0.0897 3.9e-5 0.1254 1.3348 0.038 1.4222-0.0448 0.0448-0.0794 0.03412-0.10493-0.03232zm4.9984 0c-0.0641-0.16697-5e-3 -1.39 0.0671-1.3899 0.0897 3.9e-5 0.1254 1.3348 0.038 1.4222-0.0448 0.0448-0.0796 0.03412-0.10493-0.03232zm-106.6-2.55c0-0.58968 0.01678-0.70533 0.1023-0.70533 0.08651 0 0.09937 0.10467 0.08331 0.6777-0.01315 0.46882-0.04467 0.68621-0.1023 0.70533-0.06314 0.02099-0.08331-0.14314-0.08331-0.6777zm47.494 0.64797c-0.0234-0.02343-0.0426-0.33752-0.0426-0.69795 0-0.5381 0.0179-0.65535 0.10004-0.65535 0.0821 0 0.0999 0.11806 0.0999 0.66252 0 0.60683-0.0448 0.80335-0.15732 0.69078zm-106.63-1.9309c-0.02444-0.02446-0.04443-0.33934-0.04443-0.69977 0-0.5381 0.01788-0.65535 0.09997-0.65535 0.08251 0 0.09997 0.12218 0.09997 0.69977 0 0.64079-0.03261 0.77824-0.1555 0.65535zm4.9984 0c-0.02444-0.02446-0.04443-0.33934-0.04443-0.69977 0-0.5381 0.01788-0.65535 0.09997-0.65535 0.08251 0 0.09997 0.12218 0.09997 0.69977 0 0.64079-0.03261 0.77824-0.1555 0.65535zm49.14-0.64979c0-0.58968 0.01677-0.70533 0.1023-0.70533 0.08651 0 0.09937 0.10467 0.08331 0.6777-0.01314 0.46882-0.04467 0.68621-0.1023 0.70533-0.06314 0.02099-0.08331-0.14314-0.08331-0.6777zm4.9984 0c0-0.58968 0.01678-0.70533 0.1023-0.70533 0.08651 0 0.09937 0.10467 0.08331 0.6777-0.01315 0.46882-0.04467 0.68621-0.1023 0.70533-0.06314 0.02099-0.08331-0.14314-0.08331-0.6777zm47.451-0.0052c0-0.57759 0.0175-0.69977 0.10004-0.69977 0.0825 0 0.0999 0.12218 0.0999 0.69977 0 0.5776-0.0175 0.69978-0.0999 0.69978-0.0825 0-0.10004-0.12218-0.10004-0.69978zm4.9984 0c0-0.57759 0.0175-0.69977 0.10004-0.69977 0.0825 0 0.0999 0.12218 0.0999 0.69977 0 0.5776-0.0174 0.69978-0.0999 0.69978s-0.10004-0.12218-0.10004-0.69978zm49.117 0c0-0.57759 0.0174-0.69977 0.0999-0.69977s0.10004 0.12218 0.10004 0.69977c0 0.5776-0.0175 0.69978-0.10004 0.69978-0.0825 0-0.0999-0.12218-0.0999-0.69978zm4.9984 0c0-0.57759 0.0175-0.69977 0.0999-0.69977 0.0825 0 0.10004 0.12218 0.10004 0.69977 0 0.5776-0.0175 0.69978-0.10004 0.69978-0.0825 0-0.0999-0.12218-0.0999-0.69978zm-165.73-1.8444c0.01313-0.46882 0.04466-0.68621 0.1023-0.70532 0.06314-0.02099 0.08331 0.14313 0.08331 0.67769 0 0.58968-0.01677 0.70533-0.1023 0.70533-0.08651 0-0.09937-0.10467-0.08331-0.6777zm4.9984 0c0.01313-0.46882 0.04466-0.68621 0.1023-0.70532 0.06314-0.02099 0.08331 0.14313 0.08331 0.67769 0 0.58968-0.01678 0.70533-0.1023 0.70533-0.08651 0-0.09937-0.10467-0.0833-0.6777zm49.17-0.02768c0-0.53456 0.02016-0.69864 0.08331-0.67769 0.05763 0.01905 0.08916 0.2365 0.1023 0.70532 0.01606 0.57308 0.0032 0.6777-0.08331 0.6777-0.08553 0-0.1023-0.11562-0.1023-0.70533zm4.9984 0c0-0.53456 0.02016-0.69864 0.08331-0.67769 0.05763 0.01905 0.08916 0.2365 0.1023 0.70532 0.01605 0.57308 0.0032 0.6777-0.08331 0.6777-0.08553 0-0.1023-0.11562-0.1023-0.70533zm47.451 0.0052c0-0.5776 0.0175-0.69978 0.10004-0.69978 0.0825 0 0.0999 0.12218 0.0999 0.69978 0 0.57759-0.0175 0.69977-0.0999 0.69977-0.0825 0-0.10004-0.12218-0.10004-0.69977zm4.9984 0c0-0.5776 0.0175-0.69978 0.10004-0.69978 0.0825 0 0.0999 0.12218 0.0999 0.69978 0 0.57759-0.0174 0.69977-0.0999 0.69977s-0.10004-0.12218-0.10004-0.69977zm49.117 0c0-0.5776 0.0174-0.69978 0.0999-0.69978s0.10004 0.12218 0.10004 0.69978c0 0.57759-0.0175 0.69977-0.10004 0.69977-0.0825 0-0.0999-0.12218-0.0999-0.69977zm4.9984 0c0-0.5776 0.0175-0.69978 0.0999-0.69978 0.0825 0 0.10004 0.12218 0.10004 0.69978 0 0.57759-0.0175 0.69977-0.10004 0.69977-0.0825 0-0.0999-0.12218-0.0999-0.69977zm-165.72-1.183c-0.01948-0.05073-0.02677-0.39004-0.0162-0.75398l0.01922-0.6617 0.71644-0.01893c0.60765-0.01609 0.71644-0.0039 0.71644 0.0833 0 0.08472-0.10857 0.10223-0.63313 0.10223h-0.63313v0.62919c0 0.57246-0.0782 0.85819-0.16964 0.61988zm5.0107 0.03759c-0.02344-0.02343-0.04261-0.32252-0.04261-0.66463v-0.62202h-0.5998c-0.48873 0-0.59981-0.01854-0.59981-0.10004 0-0.08253 0.12218-0.09991 0.69977-0.09991h0.69977v0.72916c0 0.6665-0.04269 0.87206-0.15732 0.75744zm49.141-0.71461v-0.77198h0.69977c0.57759 0 0.69977 0.01751 0.69977 0.09991 0 0.08137-0.1108 0.10004-0.59739 0.10004h-0.59739l-0.01907 0.64438c-0.01308 0.44208-0.04523 0.65306-0.10238 0.67201-0.06343 0.02099-0.08331-0.15648-0.08331-0.74436zm4.9984 0.09991v-0.672h-0.63313c-0.52456 0-0.63313-0.01751-0.63313-0.10223 0-0.08665 0.10879-0.09939 0.71644-0.0833l0.71643 0.01893v0.72754c0 0.52279-0.02345 0.73536-0.0833 0.75531-0.06297 0.02099-0.08331-0.13625-0.08331-0.64424zm47.482 0.57707c-0.0194-0.05073-0.0268-0.39004-0.0162-0.75398l0.0192-0.6617h0.71644c0.90414 0 0.97307 0.12553 0.0837 0.15236l-0.63347 0.01905v0.62678c0 0.5703-0.0783 0.85541-0.16964 0.61746zm5.0107 0.03759c-0.0234-0.02343-0.0426-0.32253-0.0426-0.66463v-0.62202h-0.57204c-0.42792 0-0.56507-0.02099-0.54442-0.0833 0.0189-0.05716 0.22992-0.08935 0.67201-0.10235l0.64438-0.01906v0.73157c0 0.66866-0.0426 0.87454-0.15731 0.75984zm49.105-0.03759c-0.0194-0.05073-0.0268-0.39004-0.0162-0.75398l0.0192-0.6617h0.71643c0.90415 0 0.97308 0.12553 0.0837 0.15236l-0.63346 0.01905v0.62678c0 0.5703-0.0783 0.85541-0.16964 0.61746zm5.0136 0.04055c-0.0251-0.02511-0.0456-0.32545-0.0456-0.66756v-0.62202h-0.56649c-0.46504 0-0.56648-0.01828-0.56648-0.10235 0-0.08639 0.10158-0.09939 0.64979-0.0833l0.64979 0.01906 0.019 0.69399c0.0176 0.64057-0.0257 0.87662-0.14018 0.7622zm-163.89-1.3545c-0.02356-0.03811-0.0013-0.08523 0.04944-0.1048 0.16244-0.06231 1.4157-6.56e-4 1.4157 0.06965 0 0.09205-1.4091 0.12579-1.4651 0.03502zm54.128 0.02227c-0.11363-0.11368 0.08746-0.15732 0.72411-0.15732 0.5741 0 0.69584 0.01751 0.69584 0.09991s-0.12094 0.10004-0.68866 0.10004c-0.37877 0-0.70784-0.01918-0.73128-0.04262zm52.537-0.05729c0-0.08253 0.12218-0.09991 0.69977-0.09991 0.5776 0 0.69978 0.01751 0.69978 0.09991 0 0.08253-0.12218 0.10004-0.69978 0.10004-0.57759 0-0.69977-0.01751-0.69977-0.10004zm54.116 0c0-0.08253 0.12218-0.09991 0.69977-0.09991 0.5776 0 0.69977 0.01751 0.69977 0.09991 0 0.08253-0.12218 0.10004-0.69977 0.10004s-0.69977-0.01751-0.69977-0.10004zm-161.61-0.99971v-0.4332h0.2999c0.21431 0 0.2999 0.02691 0.2999 0.09437 0 0.05189 0.03749 0.10956 0.08331 0.12823 0.06289 0.02549 0.05881 0.05266-0.01666 0.11059-0.07547 0.05794-0.07955 0.0851-0.01666 0.11059 0.04582 0.01854 0.08331 0.12128 0.08331 0.22819 0 0.19118-0.0061 0.19437-0.36655 0.19437h-0.36655zm0.46652 0.29889c0.08886-0.05832 0.08886-0.07287 0-0.13126-0.15951-0.10467-0.26658-0.07841-0.26658 0.06566 0 0.14398 0.10707 0.17033 0.26658 0.06566zm-0.0238-0.49882c-0.05499-0.05497-0.1321-0.10004-0.17137-0.10004-0.03927 0-0.0714 0.04493-0.0714 0.10004 0 0.06296 0.06347 0.10004 0.17137 0.10004 0.15233 0 0.16026-0.01159 0.0714-0.10004zm0.35703 0.56838c0-0.1169 0.32463-0.80167 0.37954-0.80063 0.02951 5.41e-4 0.13283 0.1955 0.22961 0.4332 0.16538 0.40619 0.16839 0.43218 0.04998 0.43218-0.08155 0-0.12598-0.04699-0.12598-0.13329 0-0.0909-0.04443-0.13329-0.13953-0.13329-0.08348 0-0.15353 0.05356-0.17438 0.13329-0.03484 0.13323-0.21925 0.19088-0.21925 0.06849zm0.42397-0.36845c-0.0211-0.05497-0.04694-0.10004-0.05742-0.10004-0.01043 0-0.03632 0.04493-0.05742 0.10004-0.02314 0.06025-3.33e-4 0.10004 0.05742 0.10004 0.05776 0 0.08056-0.03965 0.05742-0.10004zm0.57422 0.24992c-8.12e-4 -0.10081-0.06012-0.25826-0.13181-0.3499-0.1516-0.1938-0.1706-0.33322-0.04541-0.33322 0.04833 0 0.13271 0.09463 0.18752 0.2104l0.09964 0.2104 0.08715-0.2104c0.04793-0.11574 0.12849-0.2104 0.17903-0.2104 0.12891 0 0.11184 0.1373-0.04141 0.33322-0.07167 0.09167-0.13099 0.24909-0.13181 0.3499-9.53e-4 0.1178-0.03718 0.18327-0.10145 0.18327-0.06427 0-0.1005-0.0654-0.10145-0.18327zm1.0012-0.07776c0-0.14366-0.03747-0.27851-0.08331-0.2999-0.06664-0.03116-0.06664-0.04661 0-0.07776 0.04582-0.02137 0.08331-0.08137 0.08331-0.13329 0-0.05188 0.04498-0.09437 0.09997-0.09437 0.0786 0 0.09997 0.09257 0.09997 0.4332 0 0.34063-0.02136 0.43318-0.09997 0.43318-0.07184 0-0.09997-0.07339-0.09997-0.26102zm51.317-0.17217v-0.4332h0.26658c0.18556 0 0.26658 0.02871 0.26658 0.09437 0 0.05189 0.03749 0.10956 0.08331 0.12823 0.06291 0.02549 0.05881 0.05266-0.01666 0.11059-0.07547 0.05794-0.07957 0.0851-0.01666 0.11059 0.04582 0.01854 0.08331 0.12128 0.08331 0.22819 0 0.18882-0.0095 0.19438-0.33323 0.19438h-0.33323zm0.39987 0.29889c0.08886-0.05832 0.08886-0.07287 0-0.13126-0.15951-0.10467-0.26658-0.07841-0.26658 0.06566 0 0.14398 0.10707 0.17035 0.26658 0.06566zm-0.02379-0.49882c-0.05497-0.05497-0.1321-0.10004-0.17138-0.10004-0.03928 0-0.0714 0.04493-0.0714 0.10004 0 0.06296 0.06347 0.10004 0.17137 0.10004 0.15233 0 0.16027-0.01159 0.0714-0.10004zm0.35702 0.58578c0-0.1304 0.30819-0.81904 0.36655-0.81904 0.05835 0 0.36655 0.68865 0.36655 0.81904 0 0.02601-0.04498 0.04738-0.09997 0.04738-0.05553 0-0.09997-0.05922-0.09997-0.13329 0-0.09772-0.04443-0.13329-0.16661-0.13329-0.12218 0-0.16661 0.03553-0.16661 0.13329 0 0.07403-0.04443 0.13329-0.09997 0.13329-0.05497 0-0.09997-0.02124-0.09997-0.04738zm0.41918-0.41916c-0.01917-0.07326-0.04285-0.13329-0.05263-0.13329-0.0098 0-0.03346 0.06-0.05263 0.13329-0.02178 0.0833-0.0021 0.13329 0.05263 0.13329 0.05468 0 0.07442-0.04995 0.05263-0.13329zm0.5805 0.29636c0-0.0936-0.07528-0.28092-0.16727-0.41631-0.11274-0.16593-0.14109-0.25489-0.08694-0.27294 0.04419-0.01468 0.12311 0.0376 0.1754 0.11639 0.11922 0.17955 0.25684 0.18392 0.31207 0.0103 0.04484-0.1413 0.23326-0.18676 0.23326-0.05626 0 0.04236-0.07497 0.17532-0.16661 0.29546-0.09164 0.12012-0.16661 0.28041-0.16661 0.35617 0 0.0757-0.02998 0.13775-0.06664 0.13775-0.03665 0-0.06664-0.07661-0.06664-0.17015zm1.0663 0.07017c0-0.06669-0.06664-0.09991-0.19993-0.09991-0.10996 0-0.19994-0.01622-0.19994-0.03618 0-0.08858 0.44171-0.62539 0.5165-0.62772 0.0529-0.0013 0.08331 0.0927 0.08331 0.25842 0 0.14366 0.03746 0.27851 0.0833 0.2999 0.06664 0.03116 0.06664 0.04661 0 0.07776-0.04582 0.02137-0.0833 0.08137-0.0833 0.13329 0 0.05188-0.04498 0.09437-0.09997 0.09437s-0.09997-0.04493-0.09997-0.10004zm0-0.33322c0-0.05498-0.01184-0.10004-0.02619-0.10004-0.01441 0-0.04345 0.04493-0.06455 0.10004-0.0211 0.05497-0.0093 0.10004 0.02619 0.10004 0.0355 0 0.06455-0.04493 0.06455-0.10004zm49.784 0v-0.4332h0.26422c0.20298 0 0.28221 0.0336 0.34168 0.14469 0.0641 0.11986 0.0566 0.15984-0.0436 0.23325-0.10467 0.07648-0.10635 0.08858-0.0129 0.08858 0.0685 0 0.11614 0.06734 0.1298 0.18327 0.0184 0.15733 0.0449 0.12437 0.18735-0.23325 0.0913-0.22909 0.19616-0.41654 0.23319-0.41654 0.0583 0 0.36654 0.68864 0.36654 0.81903 0 0.10956-0.18731 0.03618-0.21924-0.086-0.0209-0.0797-0.0909-0.13328-0.17439-0.13328-0.0952 0-0.13953 0.04249-0.13953 0.13328 0 0.12064-0.0444 0.13329-0.46651 0.13329h-0.46652zm0.39341 0.27436c0.0592-0.07133 0.0523-0.10145-0.0306-0.13328-0.17792-0.06824-0.22951-0.04751-0.22951 0.09218 0 0.1533 0.14764 0.17663 0.26012 0.04107zm0.7638-0.27398c-0.021-0.05472-0.065-0.08304-0.0978-0.0627-0.0941 0.05819-0.0695 0.1623 0.0382 0.1623 0.0595 0 0.0829-0.03914 0.0596-0.09965zm-0.79989-0.20032c-0.0211-0.05497-0.0801-0.10004-0.13119-0.10004-0.0511 0-0.0928 0.04493-0.0928 0.10004 0 0.05498 0.059 0.10004 0.1312 0.10004 0.0892 0 0.11896-0.03193 0.0928-0.10004zm1.3754 0.45614c0-0.09733-0.0749-0.27528-0.16661-0.39542-0.20041-0.26275-0.20443-0.29398-0.0378-0.29398 0.0708 0 0.14784 0.06 0.1711 0.13329 0.0233 0.07326 0.0833 0.13329 0.13328 0.13329 0.0501 0 0.11008-0.06 0.13329-0.13329 0.0242-0.07609 0.10081-0.13329 0.17877-0.13329 0.14735 0 0.14277 0.01159-0.18897 0.49801-0.0493 0.07236-0.0897 0.18477-0.0897 0.24992 0 0.06515-0.03 0.11845-0.0667 0.11845s-0.0667-0.07969-0.0667-0.17699zm0.80185 0.02704c3e-3 -0.14637 4e-3 -0.14686 0.10017-0.02021 0.12514 0.16549 0.26517 0.04995 0.19758-0.16303-0.0339-0.10673-0.0666-0.12669-0.11987-0.07339-0.13101 0.13101-0.17999 0.07841-0.17999-0.19322 0-0.26124 5e-3 -0.26657 0.23803-0.26657 0.21178 0 0.23574 0.01738 0.21733 0.1579-0.0116 0.08678 0.021 0.23578 0.072 0.33096 0.12308 0.23003 5e-3 0.37753-0.30219 0.37753-0.18964 0-0.22476-0.02356-0.22299-0.14995zm51.581-0.28323v-0.4332h0.26657c0.18557 0 0.26659 0.02871 0.26659 0.09437 0 0.05189 0.0375 0.10854 0.0833 0.12566 0.0577 0.02163 0.0423 0.0636-0.05 0.13672-0.11484 0.0909-0.11767 0.10583-0.0211 0.10763 0.0721 0.0013 0.11986 0.06772 0.13369 0.1854 0.0184 0.15733 0.0449 0.12437 0.18736-0.23325 0.0913-0.22909 0.19601-0.41607 0.23284-0.41552 0.0368 5.4e-4 0.14617 0.1955 0.24295 0.4332 0.15964 0.39208 0.165 0.43218 0.0578 0.43218-0.065 0-0.13389-0.06-0.15306-0.13329-0.0208-0.07969-0.0909-0.13329-0.17438-0.13329-0.0952 0-0.13953 0.04249-0.13953 0.13329 0 0.12064-0.0444 0.13329-0.46652 0.13329h-0.46651zm0.39341 0.27436c0.0592-0.07133 0.0523-0.10145-0.0306-0.13329-0.17791-0.06824-0.2295-0.04751-0.2295 0.09218 0 0.15331 0.14763 0.17664 0.26012 0.04107zm0.75304-0.35581c-0.0312-0.16287-0.0399-0.16798-0.086-0.04995-0.0756 0.19333-0.0707 0.23138 0.03 0.23138 0.0628 0 0.0801-0.05588 0.056-0.1814zm-0.78912-0.11845c-0.0211-0.05498-0.0801-0.10004-0.13121-0.10004-0.0511 0-0.0928 0.04493-0.0928 0.10004 0 0.05497 0.059 0.10004 0.1312 0.10004 0.0892 0 0.11896-0.03193 0.0928-0.10004zm1.374 0.44986c-7.9e-4 -0.10081-0.0601-0.25826-0.13181-0.3499-0.14153-0.18093-0.17225-0.33322-0.0672-0.33322 0.0363 0 0.10351 0.06 0.14933 0.13329 0.0458 0.07326 0.11896 0.13329 0.16269 0.13329 0.0436 0 0.0985-0.06 0.12179-0.13329 0.0435-0.13714 0.23325-0.18847 0.23325-0.06309 0 0.03862-0.0749 0.18052-0.16661 0.31538-0.0917 0.13485-0.16661 0.2982-0.16661 0.363 0 0.06476-0.03 0.1178-0.0667 0.1178s-0.0673-0.08253-0.0681-0.18327zm0.81843-0.23326c0.0161-0.4148 0.017-0.41654 0.21605-0.41654 0.18264 0 0.20024 0.01983 0.20348 0.2289 1e-3 0.12592 0.0394 0.24085 0.0833 0.25547 0.11613 0.03875 0.0976 0.26092-0.0256 0.30825-0.0579 0.02227-0.19268 0.04043-0.29936 0.04043h-0.19395zm0.31602 0.21659c0-0.07326-0.04-0.13328-0.0888-0.13328-0.1254 0-0.1745 0.06412-0.13267 0.17313 0.0543 0.14175 0.22154 0.11175 0.22154-0.03978zm0-0.43318c0-0.05498-0.0449-0.10004-0.10004-0.10004-0.055 0-0.10003 0.04493-0.10003 0.10004 0 0.05497 0.0449 0.10004 0.10003 0.10004 0.055 0 0.10004-0.04493 0.10004-0.10004zm-142.29-15.528v-0.56649h0.27096c0.40094 0 0.55177 0.10158 0.50415 0.33974-0.02136 0.10673-0.0048 0.26884 0.0368 0.36013 0.11827 0.25958-0.07765 0.43309-0.48901 0.43309h-0.3229zm0.63313 0.23325c0-0.14442-0.03328-0.16937-0.24992-0.18729-0.23983-0.01983-0.24992-0.01287-0.24992 0.18729 0 0.19958 0.01004 0.20715 0.24992 0.1873 0.21664-0.0179 0.24992-0.04287 0.24992-0.1873zm0-0.49984c0-0.10596-0.05132-0.13754-0.24992-0.15397-0.23048-0.01905-0.24992-0.0077-0.24992 0.15397 0 0.16108 0.01944 0.17305 0.24992 0.15398 0.1986-0.01648 0.24992-0.04802 0.24992-0.15398zm0.32858 0.71644c0.25956-0.7051 0.40707-1.0163 0.4817-1.0163 0.04919 0 0.08944 0.0077 0.08944 0.01867 0 0.0103 0.10396 0.2652 0.23103 0.56649 0.15912 0.3773 0.20394 0.5478 0.14399 0.5478-0.04787 0-0.1212-0.07493-0.16296-0.16661-0.0602-0.13212-0.12483-0.16661-0.31225-0.16661-0.19077 0-0.24855 0.03206-0.29968 0.16661-0.03484 0.09167-0.09728 0.16661-0.13877 0.16661-0.04376 0-0.0574-0.04892-0.0325-0.11664zm0.63542-0.4332c-0.0013-0.04583-0.04197-0.15475-0.09037-0.24208l-0.08801-0.15877-0.07624 0.2187c-0.09793 0.28093-0.10319 0.26546 0.09037 0.26546 0.09164 0 0.16555-0.03747 0.16425-0.0833zm0.73546 0.31192c0-0.157-0.07019-0.33994-0.20636-0.53786-0.1135-0.16495-0.18589-0.32031-0.16088-0.34522 0.04305-0.04287 0.23002 0.15016 0.36984 0.38189 0.06782 0.1124 0.10801 0.07957 0.35956-0.2939 0.04937-0.07326 0.11094-0.11291 0.13681-0.08794 0.02586 0.02498-0.04583 0.18027-0.15933 0.34524-0.13616 0.19791-0.20636 0.38086-0.20636 0.53784 0 0.13085-0.02998 0.23791-0.06664 0.23791-0.03665 0-0.06664-0.10699-0.06664-0.23791zm1.133 0.18224c0-0.03064 0.13757-0.19521 0.30572-0.36576 0.31114-0.3156 0.33783-0.41515 0.14407-0.53737-0.08066-0.05086-0.14125-0.03927-0.23454 0.04519-0.2154 0.19494-0.31588 0.09064-0.11052-0.11471 0.21514-0.21514 0.62837-0.06167 0.62837 0.23333 0 0.07068-0.12357 0.24854-0.27462 0.39511l-0.27462 0.26651h0.27462c0.15104 0 0.27462 0.03 0.27462 0.06669s-0.16495 0.06669-0.36655 0.06669c-0.2016 0-0.36655-0.02511-0.36655-0.05562zm26.858-0.51082v-0.56649h0.27096c0.40094 0 0.55178 0.10158 0.50416 0.33974-0.02136 0.10673-0.0048 0.26884 0.0368 0.36013 0.11827 0.25958-0.07766 0.43309-0.48902 0.43309h-0.3229zm0.63313 0.23325c0-0.14442-0.03328-0.16937-0.24992-0.18729-0.23982-0.01983-0.24992-0.01287-0.24992 0.18729 0 0.19958 0.01004 0.20715 0.24992 0.1873 0.21664-0.0179 0.24992-0.04287 0.24992-0.1873zm0-0.49984c0-0.10596-0.05132-0.13754-0.24992-0.15397-0.23048-0.01905-0.24992-0.0077-0.24992 0.15397 0 0.16108 0.01944 0.17305 0.24992 0.15398 0.1986-0.01648 0.24992-0.04802 0.24992-0.15398zm0.32857 0.71644c0.25956-0.7051 0.40707-1.0163 0.4817-1.0163 0.04919 0 0.08944 0.0077 0.08944 0.01867 0 0.0103 0.10396 0.2652 0.23103 0.56649 0.15912 0.3773 0.20394 0.5478 0.14399 0.5478-0.04787 0-0.1212-0.07493-0.16295-0.16661-0.0602-0.13212-0.12483-0.16661-0.31225-0.16661-0.19077 0-0.24855 0.03206-0.29968 0.16661-0.03484 0.09167-0.09728 0.16661-0.13877 0.16661-0.04376 0-0.0574-0.04892-0.0325-0.11664zm0.63542-0.4332c-0.0013-0.04583-0.04197-0.15475-0.09038-0.24208l-0.08801-0.15877-0.07623 0.2187c-0.09794 0.28093-0.1032 0.26546 0.09037 0.26546 0.09164 0 0.16555-0.03747 0.16425-0.0833zm0.73546 0.31192c0-0.157-0.07019-0.33994-0.20636-0.53786-0.1135-0.16495-0.18589-0.32031-0.16088-0.34522 0.04307-0.04287 0.23001 0.15016 0.36984 0.38189 0.06782 0.1124 0.10801 0.07957 0.35956-0.2939 0.04939-0.07326 0.11094-0.11291 0.13682-0.08794 0.02587 0.02498-0.04583 0.18027-0.15933 0.34524-0.13616 0.19791-0.20636 0.38086-0.20636 0.53784 0 0.13085-0.02999 0.23791-0.06664 0.23791s-0.06664-0.10699-0.06664-0.23791zm1.5995 0.10467c0-0.11111-0.04443-0.13329-0.26658-0.13329-0.14662 0-0.26658-0.01777-0.26658-0.0394 0-0.07635 0.55321-0.827 0.60946-0.827 0.03134 0 0.05698 0.16244 0.05698 0.361 0 0.22364 0.0317 0.37579 0.08331 0.39986 0.06664 0.03116 0.06664 0.04661 0 0.07776-0.04582 0.02137-0.08331 0.0963-0.08331 0.16661 0 0.0703-0.02999 0.12772-0.06664 0.12772s-0.06664-0.06-0.06664-0.13328zm0-0.46652c0-0.10995-0.01295-0.19994-0.02879-0.19994s-0.09285 0.09-0.17115 0.19994l-0.14237 0.19993h0.17115c0.14574 0 0.17115-0.02974 0.17115-0.19993zm57.315 0.03335v-0.56649h0.27096c0.40094 0 0.55177 0.10158 0.50415 0.33974-0.0214 0.10673-5e-3 0.26884 0.0368 0.36013 0.11832 0.25957-0.0776 0.43309-0.48901 0.43309h-0.3229zm0.63312 0.23325c0-0.14442-0.0332-0.16937-0.24992-0.1873-0.23982-0.01983-0.24991-0.01288-0.24991 0.1873 0 0.19958 0.0103 0.20714 0.24991 0.1873 0.21664-0.0179 0.24992-0.04287 0.24992-0.1873zm0-0.49984c0-0.10596-0.0514-0.13754-0.24992-0.15397-0.23048-0.01906-0.24991-0.0077-0.24991 0.15397 0 0.16108 0.0194 0.17305 0.24991 0.15397 0.19861-0.01648 0.24992-0.04802 0.24992-0.15397zm0.32858 0.71643c0.25956-0.70509 0.40706-1.0163 0.4817-1.0163 0.0492 0 0.0895 0.0077 0.0895 0.01867 0 0.0103 0.1039 0.26519 0.23102 0.56649 0.15912 0.37728 0.20394 0.5478 0.14399 0.5478-0.0479 0-0.12128-0.07493-0.16295-0.16661-0.0603-0.13213-0.12489-0.16661-0.31225-0.16661-0.19078 0-0.24856 0.03206-0.29969 0.16661-0.0349 0.09167-0.0973 0.16661-0.13876 0.16661-0.0438 0-0.0574-0.04892-0.0325-0.11664zm0.63542-0.43318c-1e-3 -0.04583-0.042-0.15476-0.0904-0.24208l-0.0881-0.15877-0.0762 0.2187c-0.098 0.28093-0.10326 0.26545 0.0904 0.26545 0.0917 0 0.16556-0.03746 0.16426-0.0833zm0.73546 0.3119c0-0.15698-0.0702-0.33993-0.20637-0.53784-0.11355-0.16496-0.18589-0.32031-0.16087-0.34524 0.043-0.04287 0.23001 0.15017 0.36984 0.3819 0.0678 0.1124 0.10802 0.07957 0.35955-0.2939 0.0494-0.07326 0.11098-0.11291 0.13682-0.08794 0.0259 0.02498-0.0458 0.18027-0.15932 0.34522-0.13616 0.19791-0.20637 0.38086-0.20637 0.53786 0 0.13085-0.03 0.2379-0.0667 0.2379s-0.0667-0.10699-0.0667-0.2379zm1.2326 0.10416c-0.0666-0.07351-0.0987-0.15595-0.0716-0.18317 0.0272-0.02717 0.0896 0.0052 0.13859 0.07236 0.0536 0.07326 0.15108 0.11304 0.24446 0.09991 0.12102-0.01712 0.16-0.07004 0.17628-0.23906 0.025-0.25983-0.11574-0.34374-0.35855-0.21378-0.0891 0.04764-0.17189 0.07416-0.18395 0.05884-0.0116-0.01532 5e-3 -0.15532 0.0371-0.3111 0.0574-0.27533 0.0664-0.28324 0.32174-0.28324 0.14447 0 0.26267 0.03 0.26267 0.06669s-0.0868 0.06669-0.19281 0.06669c-0.11433 0-0.20927 0.04287-0.23325 0.10544-0.0565 0.14734-0.0579 0.14601 0.11561 0.11278 0.32625-0.06231 0.51556 0.4355 0.25519 0.67112-0.1638 0.14824-0.3646 0.13906-0.51162-0.02343zm11.43-0.43278v-0.56648h0.27096c0.40095 0 0.55177 0.10158 0.50416 0.33973-0.0214 0.10673-5e-3 0.26885 0.0368 0.36013 0.11831 0.25958-0.0776 0.43311-0.48903 0.43311h-0.3229zm0.63313 0.23326c0-0.14443-0.0332-0.16937-0.24991-0.1873-0.23984-0.01983-0.24993-0.01287-0.24993 0.1873 0 0.19957 0.0103 0.20714 0.24993 0.18729 0.21663-0.0179 0.24991-0.04287 0.24991-0.18729zm0-0.49984c0-0.10596-0.0514-0.13754-0.24991-0.15398-0.23049-0.01905-0.24993-0.0077-0.24993 0.15398 0 0.16108 0.0194 0.17305 0.24993 0.15397 0.19859-0.01648 0.24991-0.04802 0.24991-0.15397zm0.32857 0.71643c0.25956-0.70509 0.40708-1.0163 0.4817-1.0163 0.0492 0 0.0895 0.0077 0.0895 0.01867 0 0.0103 0.1039 0.2652 0.23103 0.56648 0.15913 0.3773 0.20394 0.54781 0.14399 0.54781-0.0479 0-0.12115-0.07493-0.16296-0.16661-0.0602-0.13213-0.12488-0.16662-0.31225-0.16662-0.19077 0-0.24855 0.03206-0.29969 0.16662-0.0349 0.09167-0.0973 0.16661-0.13876 0.16661-0.0438 0-0.0574-0.04892-0.0325-0.11664zm0.63543-0.4332c-1e-3 -0.04583-0.042-0.15475-0.0904-0.24207l-0.0881-0.15878-0.0762 0.2187c-0.098 0.28093-0.10325 0.26546 0.0904 0.26546 0.0917 0 0.16556-0.03747 0.16426-0.0833zm0.73545 0.31192c0-0.15698-0.0702-0.33993-0.20635-0.53784-0.11356-0.16496-0.1859-0.32032-0.16089-0.34524 0.0431-0.04287 0.23002 0.15017 0.36984 0.38189 0.0679 0.1124 0.10802 0.07957 0.35957-0.2939 0.0494-0.07326 0.11098-0.11291 0.13681-0.08793 0.0259 0.02498-0.0458 0.18027-0.15933 0.34524-0.13616 0.19791-0.20635 0.38086-0.20635 0.53784 0 0.13086-0.03 0.23791-0.0667 0.23791s-0.0667-0.10699-0.0667-0.23791zm1.2433 0.116c-0.14151-0.15635-0.14536-0.6648-6e-3 -0.86297 0.11845-0.16916 0.34414-0.19185 0.5332-0.05356 0.16971 0.12411 0.0836 0.20698-0.0975 0.09386-0.16166-0.10094-0.35806-0.01571-0.39485 0.17127-0.0175 0.08909 0.0116 0.10351 0.14374 0.07055 0.24703-0.06206 0.44479 0.07158 0.44479 0.30054 0 0.36262-0.38963 0.53805-0.62281 0.2804zm0.45618-0.24467c0-0.16641-0.0266-0.19993-0.15934-0.19993-0.21334 0-0.33027 0.18495-0.20918 0.33086 0.0497 0.05987 0.15289 0.09978 0.2294 0.08897 0.10571-0.01506 0.13912-0.06785 0.13912-0.21982zm11.163-0.19993v-0.56649h0.27096c0.40093 0 0.55177 0.10158 0.50415 0.33974-0.0214 0.10673-5e-3 0.26884 0.0368 0.36013 0.11832 0.25957-0.0776 0.43309-0.48901 0.43309h-0.3229zm0.63313 0.23325c0-0.14442-0.0332-0.16937-0.24993-0.1873-0.23982-0.01983-0.24991-0.01288-0.24991 0.1873 0 0.19958 0.0103 0.20714 0.24991 0.1873 0.21664-0.0179 0.24993-0.04287 0.24993-0.1873zm0-0.49984c0-0.10596-0.0514-0.13754-0.24993-0.15397-0.23048-0.01906-0.24991-0.0077-0.24991 0.15397 0 0.16108 0.0194 0.17305 0.24991 0.15397 0.19859-0.01648 0.24993-0.04802 0.24993-0.15397zm0.32857 0.71643c0.25956-0.70509 0.40706-1.0163 0.4817-1.0163 0.0492 0 0.0895 0.0077 0.0895 0.01867 0 0.0103 0.10403 0.26519 0.23104 0.56649 0.15912 0.37728 0.20393 0.5478 0.14399 0.5478-0.0479 0-0.12128-0.07493-0.16296-0.16661-0.0602-0.13213-0.12488-0.16661-0.31225-0.16661-0.19078 0-0.24856 0.03206-0.29969 0.16661-0.0349 0.09167-0.0973 0.16661-0.13876 0.16661-0.0438 0-0.0574-0.04892-0.0324-0.11664zm0.63542-0.43318c-1e-3 -0.04584-0.042-0.15476-0.0904-0.24208l-0.0881-0.15877-0.0762 0.2187c-0.098 0.28093-0.10325 0.26545 0.0904 0.26545 0.0917 0 0.16556-0.03746 0.16426-0.0833zm0.73545 0.3119c0-0.15698-0.0702-0.33993-0.20636-0.53784-0.11355-0.16496-0.18588-0.32031-0.16087-0.34524 0.043-0.04287 0.23001 0.15017 0.36984 0.3819 0.0678 0.1124 0.10802 0.07957 0.35956-0.2939 0.0494-0.07326 0.11098-0.11291 0.13682-0.08794 0.0259 0.02498-0.0458 0.18027-0.15934 0.34522-0.13615 0.19791-0.20636 0.38086-0.20636 0.53786 0 0.13085-0.03 0.2379-0.0667 0.2379s-0.0667-0.10699-0.0667-0.2379zm1.3336 0.08793c6.7e-4 -0.08253 0.0739-0.3074 0.16355-0.49984l0.16291-0.34988h-0.26352c-0.14494 0-0.26353-0.03-0.26353-0.06669s0.16496-0.06669 0.36656-0.06669c0.40409 0 0.43736 0.04661 0.23557 0.32997-0.072 0.1012-0.16822 0.32322-0.21375 0.49346-0.0873 0.32632-0.18888 0.41266-0.18779 0.15958zm11.462-0.41652v-0.56649h0.27096c0.40095 0 0.55178 0.10158 0.50415 0.33974-0.0214 0.10673-5e-3 0.26884 0.0368 0.36013 0.11832 0.25957-0.0776 0.43309-0.48901 0.43309h-0.3229zm0.63313 0.23325c0-0.14442-0.0332-0.16937-0.24992-0.1873-0.23982-0.01983-0.24992-0.01288-0.24992 0.1873 0 0.19958 0.0103 0.20714 0.24992 0.1873 0.21664-0.0179 0.24992-0.04287 0.24992-0.1873zm0-0.49984c0-0.10596-0.0514-0.13754-0.24992-0.15397-0.23049-0.01906-0.24992-0.0077-0.24992 0.15397 0 0.16108 0.0195 0.17305 0.24992 0.15397 0.1986-0.01648 0.24992-0.04802 0.24992-0.15397zm0.32858 0.71643c0.25955-0.70509 0.40706-1.0163 0.48169-1.0163 0.0492 0 0.0895 0.0077 0.0895 0.01867 0 0.0103 0.1039 0.26519 0.23103 0.56649 0.15912 0.37728 0.20394 0.5478 0.14399 0.5478-0.0479 0-0.12128-0.07493-0.16296-0.16661-0.0602-0.13213-0.12488-0.16661-0.31225-0.16661-0.19078 0-0.24856 0.03206-0.29968 0.16661-0.0349 0.09167-0.0973 0.16661-0.13877 0.16661-0.0438 0-0.0574-0.04892-0.0324-0.11665zm0.63542-0.43318c-1e-3 -0.04583-0.042-0.15476-0.0904-0.24208l-0.0881-0.15877-0.0762 0.2187c-0.098 0.28093-0.10326 0.26545 0.0904 0.26545 0.0917 0 0.16555-0.03747 0.16425-0.0833zm0.73546 0.3119c0-0.15698-0.0702-0.33993-0.20637-0.53784-0.11343-0.16496-0.18589-0.32031-0.16087-0.34524 0.043-0.04287 0.23001 0.15017 0.36984 0.3819 0.0678 0.1124 0.10802 0.07957 0.35955-0.2939 0.0494-0.07326 0.11098-0.11291 0.13682-0.08794 0.0259 0.02498-0.0458 0.18027-0.15932 0.34522-0.13617 0.19791-0.20637 0.38086-0.20637 0.53786 0 0.13085-0.03 0.2379-0.0667 0.2379s-0.0667-0.10699-0.0667-0.2379zm1.2433 0.116c-0.11703-0.12931-0.14299-0.28966-0.0604-0.3725 0.0275-0.02755 0.0499-0.15638 0.0499-0.28627 0-0.27633 0.1349-0.39144 0.38513-0.32865 0.20606 0.05176 0.29481 0.27258 0.1702 0.42357-0.0698 0.08459-0.0709 0.11356-5e-3 0.13565 0.0458 0.01545 0.0833 0.11446 0.0833 0.22008 0 0.31224-0.40584 0.44787-0.62279 0.20813zm0.45618-0.21135c0-0.23043-0.33158-0.28183-0.40128-0.06218-0.0529 0.16684 0.0619 0.27221 0.26799 0.24586 0.0932-0.01159 0.13329-0.06721 0.13329-0.18365zm-0.0334-0.49984c0-0.12051-0.0358-0.16661-0.12935-0.16661-0.0712 0-0.14878 0.03141-0.17252 0.06978-0.0713 0.11549 0.0221 0.26339 0.1665 0.26339 0.10003 0 0.13537-0.04352 0.13537-0.16661zm0.4478 0.28659c0.17362-0.57165 0.19825-0.62911 0.24818-0.57918 0.0507 0.05073-0.27143 1.0841-0.34569 1.1089-0.0388 0.01288 5e-3 -0.22544 0.0975-0.52968zm0.4535 0.43858c-0.14677-0.14677-0.0716-0.20085 0.12953-0.09321 0.13319 0.07133 0.18357 0.07184 0.26649 0.0026 0.16867-0.14 0.12836-0.27755-0.0671-0.22851-0.34284 0.086-0.57243-0.35738-0.30863-0.59611 0.15989-0.1447 0.36376-0.13999 0.50093 0.01159 0.14149 0.15635 0.14535 0.6648 6e-3 0.86297-0.12192 0.17413-0.37463 0.19339-0.5278 0.04017zm0.46492-0.65852c0-0.16641-0.0266-0.19993-0.15934-0.19993-0.21333 0-0.33026 0.18495-0.20917 0.33084 0.0497 0.05987 0.15289 0.09978 0.2294 0.08884 0.1057-0.01506 0.13911-0.06785 0.13911-0.21981zm-127.19 0.13329v-0.56649h0.27096c0.40094 0 0.55177 0.10158 0.50415 0.33974-0.02136 0.10673-0.0048 0.26884 0.0368 0.36013 0.11827 0.25957-0.07765 0.43309-0.48901 0.43309h-0.3229zm0.63313 0.23325c0-0.14442-0.03328-0.16937-0.24992-0.1873-0.23982-0.01983-0.24992-0.01288-0.24992 0.1873 0 0.19958 0.01004 0.20714 0.24992 0.1873 0.21664-0.0179 0.24992-0.04287 0.24992-0.1873zm0-0.49984c0-0.10596-0.05133-0.13754-0.24992-0.15397-0.23048-0.01905-0.24992-0.0077-0.24992 0.15397 0 0.16108 0.01944 0.17305 0.24992 0.15397 0.1986-0.01648 0.24992-0.04802 0.24992-0.15397zm0.32857 0.71643c0.25956-0.70509 0.40707-1.0163 0.4817-1.0163 0.04919 0 0.08944 0.0077 0.08944 0.01867 0 0.0103 0.10396 0.2652 0.23103 0.56649 0.15912 0.37728 0.20394 0.5478 0.14399 0.5478-0.04788 0-0.1212-0.07493-0.16296-0.16661-0.0602-0.13213-0.12483-0.16661-0.31225-0.16661-0.19077 0-0.24855 0.03206-0.29968 0.16661-0.03484 0.09167-0.09728 0.16661-0.13877 0.16661-0.04376 0-0.0574-0.04892-0.0325-0.11664zm0.63542-0.43318c-0.0013-0.04583-0.04197-0.15475-0.09037-0.24208l-0.08801-0.15877-0.07625 0.2187c-0.09793 0.28093-0.10319 0.26545 0.09037 0.26545 0.09164 0 0.16555-0.03746 0.16425-0.0833zm0.73546 0.3119c0-0.15698-0.07019-0.33993-0.20636-0.53784-0.1135-0.16496-0.18589-0.32031-0.16088-0.34524 0.04305-0.04287 0.23002 0.15017 0.36984 0.3819 0.06782 0.1124 0.10801 0.07957 0.35956-0.2939 0.04937-0.07326 0.11094-0.11291 0.13681-0.08793 0.02587 0.02498-0.04583 0.18027-0.15933 0.34524-0.13617 0.1979-0.20636 0.38085-0.20636 0.53784 0 0.13085-0.02998 0.23791-0.06664 0.23791-0.03665 0-0.06664-0.10712-0.06664-0.23791zm1.2326 0.10416c-0.1549-0.17116-0.07538-0.25858 0.09496-0.10441 0.17856 0.1616 0.37191 0.11162 0.37191-0.09605 0-0.12115-0.04036-0.17143-0.14995-0.18699-0.18585-0.02639-0.19512-0.11793-0.01666-0.16463 0.15642-0.04094 0.17806-0.23427 0.03247-0.29013-0.05545-0.02124-0.14441-0.0026-0.1977 0.04171-0.15133 0.12553-0.27422 0.05021-0.13885-0.0851 0.13208-0.13208 0.37556-0.14879 0.49067-0.03373 0.10534 0.10532 0.10293 0.38598-0.0033 0.38856-0.04623 0.0011-0.0314 0.03219 0.03332 0.06991 0.1616 0.09412 0.15359 0.43671-0.01223 0.52548-0.1967 0.10532-0.37098 0.08291-0.50458-0.06476zm-33.555-0.56606v-0.56649h0.27096c0.40094 0 0.55177 0.10158 0.50415 0.33974-0.02136 0.10673-0.0048 0.26884 0.0368 0.36013 0.11827 0.25957-0.07765 0.43309-0.48901 0.43309h-0.3229zm0.63313 0.23325c0-0.14442-0.03328-0.16937-0.24992-0.18729-0.23983-0.01983-0.24992-0.01159-0.24992 0.18729 0 0.19958 0.01004 0.20714 0.24992 0.1873 0.21664-0.0179 0.24992-0.04287 0.24992-0.1873zm0-0.49984c0-0.10596-0.05132-0.13754-0.24992-0.15397-0.23048-0.01905-0.24992-0.0064-0.24992 0.15397 0 0.16108 0.01944 0.17305 0.24992 0.15397 0.1986-0.01648 0.24992-0.04802 0.24992-0.15397zm0.32858 0.71643c0.25956-0.70509 0.40707-1.0163 0.4817-1.0163 0.04919 0 0.08944 9e-3 0.08944 0.01867 0 0.0103 0.10396 0.26519 0.23103 0.56649 0.15912 0.37728 0.20394 0.5478 0.14399 0.5478-0.04787 0-0.1212-0.07493-0.16296-0.16661-0.0602-0.13213-0.12483-0.16661-0.31225-0.16661-0.19077 0-0.24855 0.03206-0.29968 0.16661-0.03484 0.09167-0.09728 0.16661-0.13877 0.16661-0.04376 0-0.0574-0.04892-0.0325-0.11664zm0.63542-0.43318c-0.0013-0.04584-0.04197-0.15476-0.09037-0.24208l-0.08801-0.15877-0.07624 0.2187c-0.09793 0.28093-0.10319 0.26545 0.09037 0.26545 0.09164 0 0.16555-0.03746 0.16425-0.0833zm0.73546 0.3119c0-0.15698-0.07019-0.33993-0.20636-0.53784-0.1135-0.16496-0.18589-0.32031-0.16088-0.34524 0.04305-0.04287 0.23002 0.15017 0.36984 0.3819 0.06782 0.1124 0.10801 0.07957 0.35956-0.2939 0.04937-0.07326 0.11094-0.11291 0.13681-0.08794 0.02587 0.02498-0.04583 0.18027-0.15933 0.34524-0.13616 0.1979-0.20636 0.38085-0.20636 0.53784 0 0.13085-0.02999 0.23791-0.06664 0.23791s-0.06664-0.10712-0.06664-0.23791zm1.5328-0.19763c0-0.41488-0.0063-0.43215-0.13329-0.3642-0.07331 0.03927-0.13329 0.04545-0.13329 0.0139 0-0.06643 0.28638-0.34718 0.35418-0.34718 0.02513 0 0.04569 0.25492 0.04569 0.56648 0 0.33322-0.02745 0.56649-0.06664 0.56649-0.03763 0-0.06664-0.18961-0.06664-0.43554zm-3.9321-2.9867c0-0.04944 0.09317-0.21859 0.20705-0.37579 0.24447-0.33749 0.52605-1.1227 0.52605-1.467 0-0.34426-0.28157-1.1295-0.52605-1.4669-0.21837-0.30145-0.26224-0.46628-0.12374-0.46497 0.14521 0.0013 0.56229 0.68162 0.70869 1.1559 0.17925 0.58066 0.1786 1.0374-0.0022 1.5795-0.21951 0.65796-0.78975 1.4084-0.78975 1.0393zm15.062 0c0-0.04944 0.09288-0.21818 0.20639-0.37487 0.61032-0.84254 0.61032-2.0932 0-2.9357-0.21777-0.30061-0.26147-0.46537-0.12308-0.46406 0.12227 0.0012 0.54573 0.64761 0.67301 1.0274 0.06851 0.20441 0.11007 0.54595 0.11007 0.90449 0 0.35855-0.04156 0.70008-0.11007 0.9045-0.19292 0.57568-0.75632 1.2746-0.75632 0.93824zm15.128 0c0-0.04944 0.09288-0.21818 0.20639-0.37487 0.61032-0.84254 0.61032-2.0932 0-2.9357-0.21777-0.30061-0.26147-0.46537-0.12308-0.46406 0.12226 0.0012 0.54573 0.64761 0.67301 1.0274 0.06851 0.20441 0.11007 0.54595 0.11007 0.90449 0 0.35855-0.04156 0.70008-0.11007 0.9045-0.19293 0.57568-0.75632 1.2746-0.75632 0.93824zm15.062 0c0-0.04944 0.09288-0.21818 0.20639-0.37487 0.29197-0.40306 0.46006-0.93936 0.46006-1.4679 0-0.5285-0.16809-1.0648-0.46006-1.4679-0.21777-0.30061-0.26147-0.46537-0.12308-0.46406 0.12227 0.0012 0.54573 0.64761 0.67301 1.0274 0.06851 0.20441 0.11007 0.54595 0.11007 0.90449 0 0.35855-0.04156 0.70008-0.11007 0.9045-0.19292 0.57568-0.75632 1.2746-0.75632 0.93824zm61.38 0c0-0.04944 0.0928-0.21818 0.20639-0.37487 0.29197-0.40306 0.46007-0.93936 0.46007-1.4679 0-0.5285-0.1681-1.0648-0.46007-1.4679-0.21776-0.30061-0.26146-0.46537-0.12308-0.46406 0.12231 0.0012 0.54573 0.64761 0.673 1.0274 0.0685 0.20441 0.11008 0.54595 0.11008 0.90449 0 0.35855-0.0416 0.70008-0.11008 0.9045-0.19292 0.57568-0.75631 1.2746-0.75631 0.93824zm15.128 0c0-0.04944 0.0932-0.21859 0.20704-0.37579 0.24448-0.33749 0.52605-1.1227 0.52605-1.467 0-0.34426-0.28157-1.1295-0.52605-1.4669-0.21835-0.30145-0.26223-0.46628-0.12372-0.46497 0.13594 0.0013 0.55225 0.66628 0.70645 1.1284 0.26316 0.78882 0.12565 1.6452-0.38322 2.3855-0.23104 0.33617-0.40653 0.44871-0.40653 0.2607zm15.062 0c0-0.04944 0.0928-0.21818 0.20639-0.37487 0.29198-0.40306 0.46006-0.93936 0.46006-1.4679 0-0.5285-0.16808-1.0648-0.46006-1.4679-0.21776-0.30061-0.26146-0.46537-0.12308-0.46406 0.12231 0.0012 0.54572 0.64761 0.673 1.0274 0.0685 0.20441 0.11008 0.54595 0.11008 0.90449 0 0.35855-0.0416 0.70008-0.11008 0.9045-0.19291 0.57568-0.75631 1.2746-0.75631 0.93824zm15.062 0c0-0.04944 0.0928-0.21818 0.2064-0.37487 0.29196-0.40306 0.46005-0.93936 0.46005-1.4679 0-0.5285-0.16809-1.0648-0.46005-1.4679-0.21778-0.30061-0.26148-0.46537-0.12308-0.46406 0.12231 0.0012 0.54572 0.64761 0.673 1.0274 0.0685 0.20441 0.11008 0.54595 0.11008 0.90449 0 0.35855-0.0416 0.70008-0.11008 0.9045-0.19293 0.57568-0.75632 1.2746-0.75632 0.93824zm-152.35-8.5738v-5.1983h-0.13953c-0.08348 0-0.15353-0.05356-0.17438-0.13329-0.03444-0.13167-0.09091-0.13329-4.6511-0.13329-4.5602 0-4.6167 0.0013-4.6511 0.13329-0.0292 0.11162-0.09091 0.13329-0.38056 0.13329-0.28827 0-0.35142-0.02189-0.38015-0.13171-0.03232-0.1236-0.10296-0.13284-1.1434-0.14995-1.4883-0.02446-1.4831-0.14541 0.0073-0.1698 1.0785-0.01764 1.1163-0.02292 1.1163-0.15618 0-0.08188 0.05416-0.15209 0.13329-0.17278 0.13186-0.0345 0.13329-0.0909 0.13329-5.2587 0-4.599 0.01197-5.2239 0.09997-5.2239 0.08801 0 0.09997 0.62521 0.09997 5.227v5.227l0.14995 0.02124c0.09637 0.01365 0.15756 0.07493 0.17125 0.17125l0.02129 0.14995h9.1911l0.06467-0.1701c0.05957-0.15669 0.09231-0.16852 0.41488-0.14995 0.30514 0.01751 0.35295 0.0394 0.3715 0.1701l0.0213 0.14995h14.244l0.0213-0.14995c0.01913-0.13475 0.05846-0.14995 0.38784-0.14995s0.36871 0.01519 0.38784 0.14995l0.02129 0.14995h14.31l0.02129-0.14995c0.01913-0.13475 0.05846-0.14995 0.38784-0.14995s0.36871 0.01519 0.38784 0.14995l0.02129 0.14995h14.244l0.0213-0.14995c0.01914-0.13475 0.05846-0.14995 0.38785-0.14995 0.32939 0 0.36871 0.01519 0.38785 0.14995l0.0213 0.14995h14.119v-0.13952c0-0.08343 0.05356-0.15353 0.13328-0.17439 0.13192-0.03451 0.13329-0.0909 0.13329-5.4253 0-4.7471 0.01159-5.3905 0.10004-5.3905 0.08806 0 0.09991 0.64371 0.09991 5.3936v5.3936l0.14995 0.02124c0.0963 0.01365 0.15756 0.07493 0.17126 0.17125l0.02124 0.14995h14.119v-0.13954c0-0.08343 0.0536-0.15352 0.13329-0.17438 0.13186-0.0345 0.13329-0.0909 0.13329-5.2587 0-4.599 0.0116-5.2239 0.0999-5.2239 0.0881 0 0.0999 0.6252 0.0999 5.227v5.227l0.14995 0.02124c0.0958 0.01365 0.15758 0.0748 0.17104 0.16965 0.0207 0.14577 0.0406 0.14868 1.133 0.16661 1.4868 0.02446 1.4889 0.14534 3e-3 0.16979-1.0404 0.01712-1.1111 0.02639-1.1434 0.14994-0.0287 0.10982-0.0919 0.13172-0.38015 0.13172-0.28966 0-0.35135-0.02163-0.38057-0.13329-0.0346-0.13224-0.0909-0.13329-7.0837-0.13329-6.9928 0-7.0491 0.0011-7.0837 0.13329-0.02923 0.11162-0.0909 0.13329-0.38056 0.13329-0.28966 0-0.35135-0.02163-0.38056-0.13329-0.0345-0.13224-0.09091-0.13329-7.0915-0.13329-6.4124 0-7.0566 9e-3 -7.0566 0.10622 0 0.05845-0.05998 0.12192-0.13329 0.14107-0.13185 0.0345-0.13329 0.09089-0.13329 5.2254 0 4.5694-0.01197 5.1905-0.09997 5.1905s-0.09997-0.62202-0.09997-5.1983v-5.1983h-0.13953c-0.08348 0-0.15353-0.05356-0.17439-0.13328-0.03457-0.13225-0.09091-0.13329-7.1503-0.13329-7.0594 0-7.1158 0.0011-7.1503 0.13329-0.02086 0.07969-0.09091 0.13328-0.17439 0.13328h-0.13953v5.1983c0 4.5763-0.01197 5.1983-0.09997 5.1983-0.08801 0-0.09997-0.62202-0.09997-5.1983 0-4.712-0.0099-5.1983-0.1062-5.1983-0.05841 0-0.12188-0.06-0.14106-0.13328-0.03458-0.13225-0.09091-0.13329-7.1837-0.13329-7.0928 0-7.1491 1e-3 -7.1837 0.13329-0.02086 0.07969-0.09091 0.13328-0.17438 0.13328h-0.13953v5.1983c0 4.5763-0.01197 5.1983-0.09997 5.1983-0.08801 0-0.09997-0.62202-0.09997-5.1983 0-4.712-0.0099-5.1983-0.1062-5.1983-0.05841 0-0.1219-0.06-0.14106-0.13328-0.03458-0.13225-0.09091-0.13329-7.1503-0.13329-7.0594 0-7.1158 0.0011-7.1503 0.13329-0.01917 0.07326-0.08266 0.13328-0.14106 0.13328-0.09628 0-0.1062 0.4863-0.1062 5.1983 0 4.5763-0.01197 5.1983-0.09997 5.1983s-0.09997-0.62202-0.09997-5.1983zm106.57 0c0-4.712-0.0103-5.1983-0.10622-5.1983-0.0585 0-0.12192-0.06-0.14107-0.13329-0.0344-0.13167-0.0909-0.13329-4.6511-0.13329-4.5602 0-4.6167 0.0013-4.6512 0.13329-0.0292 0.11162-0.0909 0.13329-0.38057 0.13329-0.28964 0-0.35135-0.02163-0.38056-0.13329-0.0331-0.12643-0.0909-0.13329-1.1267-0.13329-0.92612 0-1.0919-0.01519-1.0919-0.10004 0-0.08485 0.16609-0.09991 1.095-0.09991 1.0848 0 1.0952-0.0013 1.1163-0.14995 0.0136-0.0963 0.0749-0.15756 0.17125-0.17125l0.14995-0.02124v-19.651h-21.326v3.1323c0 2.7487-0.0129 3.1323-0.10055 3.1323-0.0886 0-0.0985-0.38499-0.0833-3.2156l0.0172-3.2156h21.66l0.0169 9.9057c0.0167 9.8372 0.0178 9.906 0.14996 9.9406 0.0796 0.02086 0.13307 0.0909 0.13307 0.17432v0.13952h9.2544l0.0212-0.14995c0.0192-0.13475 0.0585-0.14994 0.38786-0.14994 0.32938 0 0.3687 0.01519 0.38785 0.14994l0.0212 0.14995h14.244l0.0212-0.14995c0.0185-0.13062 0.0664-0.15254 0.37104-0.17009 0.31938-0.01841 0.35645-0.0052 0.42722 0.14995l0.0775 0.17009h14.177l0.0646-0.1701c0.0596-0.15669 0.0923-0.16852 0.41489-0.14995 0.30514 0.01751 0.35295 0.0394 0.3715 0.1701l0.0212 0.14995h14.244l0.0212-0.14995c0.0192-0.13475 0.0584-0.14994 0.38785-0.14994 0.32938 0 0.36871 0.01519 0.38784 0.14994 0.0211 0.1486 0.0313 0.14995 1.1219 0.14995 0.85079 0 1.0943 0.01893 1.0729 0.0833-0.0203 0.06103-0.31434 0.08819-1.0978 0.10158-1.0016 0.01712-1.0724 0.02665-1.1046 0.14995-0.0205 0.07828-0.091 0.13168-0.17396 0.13168h-0.13953v5.1983c0 4.5763-0.0116 5.1983-0.0999 5.1983-0.0881 0-0.0999-0.62117-0.0999-5.1905 0-5.1345-1e-3 -5.1909-0.13329-5.2254-0.0733-0.01918-0.1333-0.08266-0.1333-0.14107 0-0.09656-0.64991-0.10622-7.1232-0.10622-7.0672 0-7.1235 0.0011-7.1581 0.13329-0.0192 0.07326-0.0827 0.13329-0.14107 0.13329-0.0963 0-0.10622 0.48629-0.10622 5.1983 0 4.5763-0.0116 5.1983-0.0999 5.1983-0.0881 0-0.10004-0.62202-0.10004-5.1983v-5.1983h-0.13952c-0.0834 0-0.15354-0.05356-0.17439-0.13329-0.0346-0.13224-0.0909-0.13329-7.1837-0.13329-7.0928 0-7.1491 0.0011-7.1836 0.13329-0.0209 0.0797-0.0909 0.13329-0.1744 0.13329h-0.13952v5.1983c0 4.5763-0.0116 5.1983-0.10004 5.1983-0.0881 0-0.0999-0.62202-0.0999-5.1983 0-4.712-0.0103-5.1983-0.10622-5.1983-0.0584 0-0.12192-0.06-0.14106-0.13329-0.0346-0.13224-0.0909-0.13329-7.1503-0.13329-7.0594 0-7.1158 0.0011-7.1503 0.13329-0.0209 0.0797-0.0909 0.13329-0.17439 0.13329h-0.13954v5.1983c0 4.5763-0.0116 5.1983-0.0999 5.1983-0.0881 0-0.10004-0.62202-0.10004-5.1983zm-86.239-8.0974v-0.4332h0.27134c0.31225 0 0.46176 0.11716 0.46176 0.36179 0 0.1555-0.02468 0.17138-0.26658 0.17138-0.23992 0-0.26658 0.01661-0.26658 0.16661 0 0.10364-0.03776 0.16661-0.09997 0.16661-0.07861 0-0.09997-0.09257-0.09997-0.4332zm0.49984-0.10004c0-0.05497-0.06748-0.10956-0.14995-0.12128-0.11541-0.01635-0.14995 0.01159-0.14995 0.12128 0 0.10969 0.03454 0.13766 0.14995 0.12128 0.08248-0.01159 0.14995-0.0663 0.14995-0.12128zm0.2999 0.10004c0-0.34063 0.02136-0.4332 0.09997-0.4332 0.06664 0 0.09997 0.06669 0.09997 0.19994 0 0.16883 0.02592 0.19993 0.16661 0.19993 0.1407 0 0.16661-0.03116 0.16661-0.19993 0-0.13329 0.03332-0.19994 0.09997-0.19994 0.07767 0 0.10107 0.09296 0.1049 0.41654l0.0049 0.41652 0.19396-0.42109c0.10668-0.23162 0.22206-0.40375 0.25639-0.38252 0.03434 0.02124 0.11312 0.1713 0.17506 0.3335 0.08823 0.23105 0.13069 0.27804 0.19603 0.21702 0.06271-0.05858 0.06501-0.10931 0.0093-0.20435-0.05611-0.09566-0.05388-0.13378 0.0091-0.15661 0.04582-0.01661 0.08331-0.07261 0.08331-0.12463 0-0.06347 0.07645-0.09437 0.23326-0.09437 0.1283 0 0.23326 0.01288 0.23326 0.02781 0 0.01532 0.0199 0.07969 0.04424 0.14314 0.03673 0.09579 0.01414 0.10956-0.13329 0.08137-0.23377-0.04468-0.23995 0.11742-0.0067 0.17595 0.13856 0.03476 0.16688 0.07699 0.14995 0.22382-0.01998 0.17335-0.03808 0.18148-0.43068 0.19357-0.35538 0.0103-0.4143-0.0052-0.44362-0.11664-0.04429-0.16934-0.24894-0.16654-0.29355 0.0039-0.02619 0.10017-0.09091 0.13329-0.26034 0.13329-0.19609 0-0.22548-0.02176-0.22548-0.16661 0-0.13329-0.03332-0.16661-0.16661-0.16661-0.13329 0-0.16661 0.03335-0.16661 0.16661 0 0.10364-0.03776 0.16661-0.09997 0.16661-0.07861 0-0.09997-0.09257-0.09997-0.4332zm2.066 0.19993c0-0.06218-0.06294-0.10004-0.16661-0.10004-0.10367 0-0.16661 0.03772-0.16661 0.10004 0 0.06218 0.06294 0.10004 0.16661 0.10004 0.10367 0 0.16661-0.03772 0.16661-0.10004zm0.26658-0.19993v-0.4332h0.33322c0.25177 0 0.33322 0.02446 0.33322 0.10004 0 0.06669-0.06664 0.09991-0.19993 0.09991-0.13329 0-0.19994 0.03335-0.19994 0.10004 0 0.06669 0.06664 0.10004 0.19994 0.10004 0.10996 0 0.19993 0.03 0.19993 0.06669s-0.08997 0.06669-0.19993 0.06669c-0.13329 0-0.19994 0.03335-0.19994 0.10004 0 0.06669 0.06664 0.10004 0.19994 0.10004 0.10996 0 0.19993 0.03 0.19993 0.06669s-0.14995 0.06669-0.33322 0.06669h-0.33322zm1.2663 0.17216c0-0.14366-0.03745-0.27851-0.0833-0.2999-0.06664-0.03116-0.06664-0.04661 0-0.07776 0.04582-0.02137 0.0833-0.08137 0.0833-0.13328 0-0.05189 0.02998-0.09437 0.06665-0.09437 0.03759 0 0.06664 0.18882 0.06664 0.43318 0 0.24438-0.02904 0.4332-0.06664 0.4332-0.03665 0-0.06665-0.11742-0.06665-0.26102zm99.968-0.17216v-0.4332h0.28387c0.31657 0 0.468 0.14706 0.4039 0.39219-0.0268 0.10235-0.0895 0.14098-0.22903 0.14098-0.16055 0-0.19216 0.02742-0.19216 0.16661 0 0.12218-0.0355 0.16661-0.13329 0.16661-0.11961 0-0.13329-0.04442-0.13329-0.4332zm0.49983-0.10004c0-0.05394-0.0525-0.10828-0.11664-0.12064-0.0818-0.01571-0.11665 0.02021-0.11665 0.12064 0 0.10042 0.0348 0.13636 0.11665 0.12064 0.0641-0.01288 0.11664-0.06656 0.11664-0.12064zm0.29991 0.10004c0-0.34063 0.0214-0.4332 0.10004-0.4332 0.0667 0 0.0999 0.06669 0.0999 0.19994 0 0.17771 0.0222 0.19993 0.19994 0.19993 0.17772 0 0.19994-0.02214 0.19994-0.19993 0-0.10995 0.03-0.19994 0.0667-0.19994 0.0376 0 0.0667 0.18883 0.0667 0.4332s-0.0291 0.4332-0.0667 0.4332c-0.0367 0-0.0667-0.07493-0.0667-0.16661 0-0.1407-0.0312-0.16661-0.19994-0.16661-0.16883 0-0.19994 0.02588-0.19994 0.16661 0 0.10364-0.0377 0.16661-0.0999 0.16661-0.0787 0-0.10004-0.09257-0.10004-0.4332zm0.79974 0.36845c0-0.10017 0.32074-0.80165 0.36655-0.80165 0.0458 0 0.36654 0.70144 0.36654 0.80165 0 0.03566-0.0449 0.06476-0.0999 0.06476-0.0555 0-0.10004-0.05922-0.10004-0.13329 0-0.09772-0.0444-0.13329-0.16661-0.13329-0.12218 0-0.16661 0.03553-0.16661 0.13329 0 0.07403-0.0444 0.13329-0.0999 0.13329-0.055 0-0.10003-0.0291-0.10003-0.06476zm0.83557-0.01854c-0.0227-0.07081-0.0129-0.39416 0.0215-0.69978 0.0155-0.13806 0.37735-0.09592 0.5155 0.06l0.12694 0.14332-0.24991-0.03914c-0.33111-0.05189-0.34685 0.11935-0.0166 0.18133 0.18791 0.03528 0.23325 0.07416 0.23325 0.20022 0 0.086-0.0475 0.17467-0.10544 0.19692-0.18196 0.06978-0.4974 0.04403-0.5252-0.04287zm0.41436-0.13329c-0.0422-0.1281-0.3169-0.14663-0.3169-0.02124 0 0.06811 0.0601 0.10467 0.17217 0.10467 0.10789 0 0.16193-0.03103 0.14473-0.0833zm0.2829-0.21659v-0.4332h0.36656c0.28139 0 0.36654 0.02317 0.36654 0.10004 0 0.06978-0.0703 0.09991-0.23325 0.09991-0.16292 0-0.23326 0.03013-0.23326 0.10004 0 0.06978 0.0703 0.10004 0.23326 0.10004 0.12823 0 0.23325 0.03 0.23325 0.06669s-0.10493 0.06669-0.23325 0.06669c-0.16292 0-0.23326 0.03013-0.23326 0.10004 0 0.06978 0.0703 0.10004 0.23326 0.10004 0.12823 0 0.23325 0.03 0.23325 0.06669s-0.16495 0.06669-0.36654 0.06669h-0.36656zm1.0259 0.32777c0.0223-0.05794 0.0404-0.13294 0.0404-0.16661 0-0.0336 0.0439-0.06115 0.0976-0.06115 0.12862 0 0.26215-0.24232 0.16623-0.30159-0.0384-0.02369-0.1142-0.0064-0.1684 0.03875-0.12669 0.10506-0.18642 0.04455-0.13036-0.13203 0.0519-0.16341 0.32744-0.18852 0.47286-0.04313 0.14344 0.14342 0.12077 0.41574-0.0381 0.45727-0.0734 0.01918-0.13329 0.06772-0.13329 0.10776 0 0.04004 0.06 0.07287 0.13329 0.07287 0.0733 0 0.13328 0.03 0.13328 0.06669s-0.13815 0.06669-0.30702 0.06669c-0.25259 0-0.29987-0.01867-0.26659-0.10544zm-138.45-5.1978c0-0.50112 0.01388-0.56869 0.11291-0.54962 0.07274 0.01403 0.16029 0.16984 0.24609 0.43808 0.07324 0.22899 0.15162 0.41634 0.17416 0.41634s0.10091-0.18735 0.17416-0.41634c0.0858-0.26823 0.17334-0.42407 0.24609-0.43808 0.09903-0.01905 0.11291 0.04854 0.11291 0.54962 0 0.67617-0.11832 0.77404-0.14691 0.12154l-0.01971-0.44986-0.15651 0.45323c-0.08608 0.24927-0.18911 0.44235-0.22896 0.42906-0.03985-0.01326-0.13952-0.21722-0.2215-0.45322l-0.14905-0.42908-0.0052 0.44986c-3e-3 0.25201-0.03452 0.44986-0.07185 0.44986-0.03924 0-0.06664-0.23489-0.06664-0.57137zm1.2663 0.51571c0-0.03064 0.13758-0.19522 0.30572-0.36577 0.31114-0.3156 0.33783-0.41513 0.14407-0.53735-0.08067-0.05086-0.14125-0.03927-0.23454 0.04519-0.2154 0.19492-0.31588 0.09064-0.11052-0.11471 0.21514-0.21514 0.62837-0.06167 0.62837 0.23333 0 0.07068-0.12357 0.24854-0.27462 0.39511l-0.27462 0.26649h0.27462c0.15104 0 0.27462 0.03 0.27462 0.06669s-0.16495 0.06669-0.36655 0.06669c-0.2016 0-0.36655-0.02511-0.36655-0.05562zm68.94-0.06103c0.25956-0.7051 0.40706-1.0163 0.4817-1.0163 0.04918 0 0.08948 9e-3 0.08948 0.01867 0 0.0103 0.10403 0.26519 0.23102 0.56649 0.15913 0.37729 0.20395 0.5478 0.14399 0.5478-0.04789 0-0.12115-0.07493-0.16296-0.16661-0.06025-0.13212-0.12488-0.16661-0.31225-0.16661-0.19076 0-0.24855 0.03219-0.29969 0.16661-0.03489 0.09167-0.09733 0.16661-0.13876 0.16661-0.04377 0-0.05742-0.04892-0.03244-0.11664zm0.63542-0.4332c-0.0013-0.04583-0.04197-0.15476-0.09038-0.24208l-0.08806-0.15877-0.07622 0.2187c-0.09798 0.28093-0.10326 0.26545 0.09038 0.26545 0.09167 0 0.16554-0.03747 0.16426-0.0833zm0.64581 0.42794c-0.12437-0.13745-0.16211-1.0111-0.04364-1.0111 0.03734 0 0.06669 0.18439 0.06669 0.41987 0 0.4453 0.06952 0.57982 0.2999 0.57982 0.23033 0 0.2999-0.13452 0.2999-0.57982 0-0.23548 0.02923-0.41987 0.06669-0.41987 0.03798 0 0.06669 0.19649 0.06669 0.45619 0 0.35731-0.02639 0.48009-0.12192 0.56648-0.16177 0.1464-0.49679 0.14028-0.63421-0.01159zm0.95603 0.0815c0-0.02227 0.08858-0.15224 0.19687-0.28895l0.19686-0.24856-0.16946-0.2494c-0.2134-0.31404-0.13582-0.41474 0.0927-0.12038l0.16973 0.21863 0.18332-0.21863c0.24274-0.28948 0.30553-0.21223 0.08781 0.10815l-0.17158 0.2525 0.21081 0.29353c0.24794 0.34526 0.13047 0.40765-0.146 0.07751l-0.18191-0.2172-0.1728 0.2166c-0.15688 0.19662-0.29645 0.27957-0.29645 0.1762zm12.996-0.45945v-0.49984h-0.19993c-0.10995 0-0.19995-0.03-0.19995-0.06669 0-0.03811 0.19995-0.06669 0.46652-0.06669 0.26658 0 0.46652 0.02858 0.46652 0.06669 0 0.03669-0.09 0.06669-0.19994 0.06669h-0.19993v0.49984c0 0.28879-0.0282 0.49984-0.0667 0.49984s-0.0667-0.21104-0.0667-0.49984zm0.73309-0.06669c0-0.33322 0.0274-0.56648 0.0667-0.56648s0.0667 0.23325 0.0667 0.56648c0 0.33322-0.0274 0.56649-0.0667 0.56649s-0.0667-0.23326-0.0667-0.56649zm0.39988 0v-0.56649h0.43319c0.24437 0 0.43319 0.0291 0.43319 0.06669 0 0.03669-0.16494 0.06669-0.36655 0.06669-0.34655 0-0.36654 9e-3 -0.36654 0.16661 0 0.1555 0.0223 0.16661 0.33322 0.16661 0.18327 0 0.33323 0.03 0.33323 0.06669s-0.14996 0.06669-0.33323 0.06669c-0.32582 0-0.33322 0.0052-0.33322 0.19993 0 0.19792 4e-3 0.19994 0.36654 0.19994 0.20161 0 0.36655 0.03 0.36655 0.06669 0 0.03759-0.18882 0.06669-0.43319 0.06669h-0.43319zm-86.572-3.1223c0-0.04944 0.09288-0.21819 0.20639-0.37489 0.29197-0.40306 0.46006-0.93936 0.46006-1.4679 0-0.52851-0.16809-1.0648-0.46006-1.4679-0.21777-0.30063-0.26147-0.46538-0.12308-0.46407 0.12226 0.0012 0.54573 0.64763 0.67301 1.0274 0.06851 0.20442 0.11007 0.54595 0.11007 0.9045 0 0.35854-0.04156 0.70008-0.11007 0.90449-0.19293 0.57568-0.75632 1.2746-0.75632 0.93825zm85.172 0c0-0.04944 0.0928-0.21819 0.2064-0.37489 0.29196-0.40306 0.46005-0.93936 0.46005-1.4679 0-0.52851-0.16809-1.0648-0.46005-1.4679-0.21776-0.30063-0.26147-0.46538-0.12308-0.46407 0.12231 0.0012 0.54572 0.64763 0.673 1.0274 0.0685 0.20442 0.11008 0.54595 0.11008 0.9045 0 0.35854-0.0416 0.70008-0.11008 0.90449-0.19292 0.57568-0.75632 1.2746-0.75632 0.93825zm-14.862-0.33322c0-0.04944 0.09321-0.21859 0.20704-0.3758 0.24448-0.33749 0.52605-1.1227 0.52605-1.4669 0-0.34427-0.28157-1.1295-0.52605-1.467-0.21836-0.30145-0.26223-0.46629-0.12373-0.46497 0.13596 0.0013 0.55226 0.66628 0.70645 1.1285 0.26316 0.78881 0.12553 1.6452-0.38322 2.3855-0.23104 0.33617-0.40653 0.44871-0.40653 0.26071zm-70.844-6.108v-3.1323h-3.5322c-3.0953 0-3.5322-0.012875-3.5322-0.10004 0-0.087677 0.448-0.10004 3.6322-0.10004h3.6322v3.2323c0 2.8287-0.01249 3.2323-0.09997 3.2323-0.08745 0-0.09997-0.39246-0.09997-3.1323zm70.244-3.1323c0-5.1687 0.01159-5.8648 0.09991-5.8648 0.08806 0 0.10004 0.69607 0.10004 5.8648 0 5.1687-0.01159 5.8648-0.10004 5.8648-0.08806 0-0.09991-0.69607-0.09991-5.8648zm-76.842 2.6942c0-0.50114 0.01388-0.5687 0.11291-0.54962 0.07274 0.01403 0.16029 0.16984 0.24609 0.43808 0.07324 0.22898 0.15162 0.41633 0.17416 0.41633s0.10091-0.18735 0.17416-0.41633c0.0858-0.26823 0.17334-0.42407 0.24609-0.43808 0.09903-0.01905 0.11291 0.04854 0.11291 0.54962 0 0.67617-0.11832 0.77404-0.14691 0.12154l-0.01971-0.44986-0.15651 0.45322c-0.08608 0.24928-0.18911 0.44236-0.22896 0.42908-0.03985-0.01326-0.13952-0.21724-0.2215-0.45322l-0.14905-0.42908-0.0051 0.44986c-3e-3 0.252-0.03452 0.44986-0.07185 0.44986-0.03924 0-0.06664-0.23489-0.06664-0.57138zm1.6661 0.13583c0-0.41489-0.0063-0.43215-0.13329-0.3642-0.07331 0.03927-0.13329 0.04545-0.13329 0.01403 0-0.06643 0.28638-0.34719 0.35418-0.34719 0.02513 0 0.04569 0.25492 0.04569 0.56649 0 0.33322-0.02745 0.56648-0.06664 0.56648-0.03763 0-0.06664-0.18961-0.06664-0.43553zm173.61-0.7344v-0.43684l0.31657 0.02034c0.31593 0.02021 0.3166 0.02086 0.33786 0.28054 0.0394 0.48067-0.0179 0.57284-0.3558 0.57284h-0.29863zm0.46652 0.16924c0.0888-0.05832 0.0888-0.07287 0-0.13124-0.15952-0.10467-0.26659-0.07841-0.26659 0.06566 0 0.14398 0.10712 0.17033 0.26659 0.06566zm0.0667-0.36553c0-0.06219-0.063-0.10004-0.16661-0.10004-0.10364 0-0.16661 0.03772-0.16661 0.10004 0 0.06218 0.063 0.10004 0.16661 0.10004 0.10364 0 0.16661-0.03772 0.16661-0.10004zm0.26659 0.54205c0-0.17322 0.28464-0.7753 0.36654-0.7753s0.36654 0.60209 0.36654 0.7753c0 0.14067-0.14144 0.10763-0.18062-0.04223-0.0219-0.08381-0.0909-0.13329-0.18592-0.13329-0.095 0-0.164 0.04944-0.18592 0.13329-0.0391 0.14982-0.18062 0.18289-0.18062 0.04223zm0.4665-0.33818c0-0.0703-0.12785-0.09991-0.16593-0.03837-0.023 0.03721 5e-3 0.06772 0.0621 0.06772 0.0572 0 0.10389-0.01326 0.10389-0.02936zm0.59981 0.25558c0-0.09553-0.0924-0.29047-0.20553-0.4332-0.18158-0.22926-0.1906-0.2595-0.0774-0.2595 0.0748 0 0.16357 0.07635 0.21317 0.18327l0.085 0.18327 0.0574-0.15143c0.0577-0.15208 0.23359-0.26428 0.304-0.19386 0.0207 0.02073-0.0255 0.12656-0.10287 0.23512-0.0772 0.10853-0.14057 0.29024-0.14057 0.4037 0 0.11343-0.03 0.2063-0.0667 0.2063s-0.0667-0.07815-0.0667-0.17368zm0.70465 0.06244c-0.0234-0.06128-9e-3 -0.13244 0.0333-0.15828 0.0551-0.03412 0.0557-0.05948 3e-3 -0.09257-0.0406-0.02511-0.0738-0.13176-0.0738-0.2371 0-0.21565 0.16694-0.30659 0.43799-0.23856 0.14012 0.03515 0.16181 0.07931 0.16181 0.32891 0 0.19467-0.0396 0.32412-0.12192 0.3986-0.15701 0.14207-0.38503 0.14156-0.43975-1e-3zm0.42831-0.52646c0-0.06952-0.0487-0.09746-0.14472-0.0833-0.21337 0.03141-0.23621 0.18791-0.0274 0.18791 0.11201 0 0.17216-0.03656 0.17216-0.10467zm-192.87-1.1283c0-0.41781 0.00592-0.43318 0.16687-0.43318 0.14156 0 0.17908 0.045705 0.24742 0.30118l0.080557 0.30118 0.087819-0.30118c0.13717-0.47044 0.28372-0.40226 0.28372 0.132 0 0.33127-0.022428 0.4332-0.095338 0.4332-0.052426 0-0.10833-0.067464-0.12422-0.14995l-0.028878-0.14995-0.0090123 0.15484c-0.013686 0.23338-0.21465 0.15577-0.31467-0.12154l-0.084136-0.23326-0.0050212 0.24992c-0.0036 0.17546-0.034852 0.24991-0.10503 0.24991-0.0786 0-0.099972-0.09257-0.099972-0.4332zm0.95334 0.34988c0.25636-0.61785 0.34348-0.78307 0.41289-0.78307 0.081896 0 0.36655 0.60209 0.36655 0.77531 0 0.050083-0.044984 0.091025-0.099972 0.091025-0.055542 0-0.099973-0.059224-0.099973-0.13329 0-0.096046-0.044431-0.13329-0.15884-0.13329-0.10279 0-0.17114 0.046993-0.1937 0.13329-0.01917 0.073257-0.085862 0.13329-0.14819 0.13329-0.06467 0-0.098492-0.035792-0.078768-0.0833zm0.44621-0.5165c0-0.073257-0.011459-0.13329-0.025556-0.13329-0.014059 0-0.041238 0.059996-0.060408 0.13329-0.01917 0.073257-0.00772 0.13329 0.025556 0.13329 0.03323 0 0.060408-0.059996 0.060408-0.13329zm0.39987 0.16661c0-0.34063 0.021359-0.43318 0.099972-0.43318 0.0786 0 0.099972 0.092569 0.099972 0.43318 0 0.34064-0.021359 0.4332-0.099972 0.4332s-0.099972-0.09257-0.099972-0.4332zm0.26658 0c0-0.51468 0.104-0.57002 0.34445-0.18327l0.15539 0.24992 0.02069-0.24992c0.013531-0.16348 0.053868-0.24991 0.11663-0.24991 0.073657 0 0.095943 0.10068 0.095943 0.43318 0 0.36839-0.017445 0.43309-0.11663 0.43254-0.064143-3.347e-4 -0.18278-0.11278-0.26363-0.24991l-0.147-0.24927-0.00296 0.24991c-0.00206 0.17641-0.032354 0.24992-0.10292 0.24992-0.0786 0-0.099973-0.09257-0.099973-0.4332zm1.133 0v-0.43318h0.29435c0.16189 0 0.30578 0.034247 0.31975 0.076219 0.019055 0.057164 0.060962 0.057164 0.16779 0 0.15567-0.0833 0.41345-0.099264 0.57889-0.035792 0.1544 0.059224 0.14262 0.57167-0.016454 0.71563-0.13054 0.11819-0.41128 0.151-0.41128 0.048152 0-0.034118-0.059983-0.08124-0.13329-0.10441-0.087497-0.02781-0.1351-0.10377-0.13855-0.22109-0.00283-0.098363-0.020394-0.1413-0.038882-0.095531-0.018488 0.045834-0.12109 0.0833-0.228 0.0833-0.17155 0-0.19438 0.023432-0.19438 0.19993 0 0.13329-0.03332 0.19993-0.099972 0.19993-0.0786 0-0.099973-0.092569-0.099973-0.43318zm1.2549 0.17502c0.050353-0.031929 0.079141-0.13943 0.066653-0.24889-0.01881-0.1648-0.050958-0.1927-0.22193-0.1927-0.17098 0-0.20312 0.027938-0.22193 0.1927-0.020793 0.18218 0.068623 0.30509 0.22193 0.30509 0.036654 0 0.10654-0.025234 0.15529-0.056134zm-0.72177-0.37495c0-0.062185-0.062945-0.10004-0.16661-0.10004-0.10367 0-0.16661 0.037723-0.16661 0.10004 0 0.062185 0.062945 0.10004 0.16661 0.10004 0.10367 0 0.16661-0.037723 0.16661-0.10004zm1.2343 0.54982c-0.015244-0.045834-0.072678-0.24075-0.1276-0.43318-0.094604-0.33141-0.093406-0.34988 0.022608-0.34988 0.093162 0 0.13705 0.075832 0.18332 0.31656l0.060833 0.31656 0.05043-0.31656c0.039165-0.24579 0.078086-0.31656 0.17409-0.31656 0.074957 0 0.14885 0.072227 0.18764 0.18327l0.063975 0.18327 0.04877-0.18327c0.046208-0.17368 0.069318-0.18327 0.44141-0.18327 0.21733 0 0.39265 0.029741 0.39265 0.066691 0 0.036693-0.10497 0.066691-0.23326 0.066691-0.33109 0-0.31709 0.18312 0.01666 0.21802l0.24992 0.026136-0.24992 0.011587c-0.20175 0.00901-0.24992 0.036822-0.24992 0.14449 0 0.10789 0.044431 0.13329 0.23326 0.13329 0.16291 0 0.23326 0.030127 0.23326 0.10004 0 0.075575-0.081459 0.10004-0.33323 0.10004h-0.33323l-0.00502-0.24991-0.00502-0.24992-0.07824 0.21182c-0.11796 0.31935-0.16001 0.32607-0.28341 0.04532l-0.11301-0.25712-0.064116 0.24991c-0.062378 0.24315-0.2253 0.33916-0.28272 0.16661zm1.5647-0.35336v-0.43667l0.34989 0.020085c0.31119 0.017896 0.35238 0.037723 0.37238 0.17922 0.01236 0.087548-0.01761 0.18496-0.06664 0.21659-0.06255 0.040427-0.06726 0.072485-0.01581 0.1075 0.04034 0.027552 0.10887 0.11742 0.1523 0.19993 0.12198 0.23164-0.07475 0.1954-0.26811-0.049439-0.20236-0.25618-0.32407-0.2564-0.32407-6.051e-4 0 0.13329-0.03332 0.19994-0.09997 0.19994-0.07869 0-0.09997-0.092956-0.09997-0.43669zm0.53316-0.19646c0-0.062185-0.06294-0.10004-0.16661-0.10004-0.10367 0-0.16661 0.037723-0.16661 0.10004 0 0.062185 0.06294 0.10004 0.16661 0.10004 0.10367 0 0.16661-0.037723 0.16661-0.10004zm183.3 0.54508c-0.061-0.15903 3e-3 -1.3788 0.0713-1.3788 0.0384 0 0.0747 0.26831 0.0857 0.63346l0.0191 0.63348h0.6307c0.51622 0 0.63073 0.018153 0.63073 0.10004 0 0.082527-0.12244 0.10004-0.70187 0.10004-0.52018 0-0.71061-0.022788-0.73567-0.088063zm1.9507 0.045834c-0.1254-0.1254 9e-3 -0.15775 0.65863-0.15775 0.53456 0 0.69864 0.020213 0.67772 0.0833-0.0301 0.091024-1.2517 0.15911-1.3364 0.074416zm1.8012 0.00129c-0.11613-0.11613 0.082-0.15951 0.72749-0.15951 0.53141 0 0.6947 0.020213 0.67376 0.0833-0.0297 0.089866-1.3175 0.15991-1.4012 0.076219zm3.7969-0.00129c-0.13022-0.13022 0.0179-0.16037 0.70321-0.14314 0.44284 0.011587 0.74976 0.046092 0.74976 0.085488 0 0.075961-1.3799 0.13074-1.453 0.057679zm1.9328 1.288e-4c-0.1254-0.1254 9e-3 -0.15775 0.65864-0.15775 0.53456 0 0.69864 0.020213 0.67772 0.0833-0.0301 0.091025-1.2517 0.15911-1.3364 0.074416zm1.9305-0.00258c-0.12025-0.12025 5e-3 -0.1555 0.55296-0.1555h0.59739l0.019-0.64439c0.0131-0.44208 0.0452-0.65306 0.10236-0.672 0.0635-0.020986 0.0833 0.15648 0.0833 0.74435v0.77197h-0.65534c-0.36044 0-0.67535-0.019956-0.69977-0.044418zm-193.25-1.2549c0-0.085488 0.18883-0.10004 1.2996-0.10004s1.2996 0.014549 1.2996 0.10004c0 0.085488-0.18883 0.10004-1.2996 0.10004s-1.2996-0.014548-1.2996-0.10004zm-6.9977-0.36654c0-0.036693 0.029985-0.066691 0.06664-0.066691s0.06664-0.043002 0.06664-0.095531 0.059984-0.11446 0.13329-0.13779c0.16027-0.050855 0.18897-0.36654 0.03332-0.36654-0.054988 0-0.099972 0.044933-0.099972 0.10004 0 0.054975-0.044984 0.099908-0.099973 0.099908-0.15176 0-0.11998-0.25125 0.038135-0.30144 0.075961-0.024076 0.21091-0.025492 0.2999-0.00257 0.13254 0.033217 0.1618 0.082527 0.1618 0.2726 0 0.12759-0.027848 0.23199-0.061889 0.23199s-0.11439 0.052529-0.17857 0.11665c-0.11114 0.1111-0.10741 0.11857 0.078548 0.15873 0.16035 0.034633 0.13867 0.043517-0.12133 0.049954-0.17411 0.0038624-0.31656-0.022145-0.31656-0.058709zm0.93303-0.066691c0-0.07403 0.044431-0.13329 0.099973-0.13329 0.054988 0 0.099972 0.044933 0.099972 0.10004 0 0.054975 0.04707 0.10004 0.10461 0.10004 0.070361 0 0.097629-0.049053 0.083313-0.14995-0.017291-0.1218-0.057332-0.1461-0.21319-0.12942-0.15466 0.016608-0.18375-6.695e-4 -0.14995-0.088707 0.023072-0.060125 0.041946-0.18182 0.041946-0.27046 0-0.14036 0.030706-0.16115 0.23803-0.16115 0.21179 0 0.23575 0.017381 0.21734 0.1579-0.01133 0.086905 0.020986 0.23578 0.071918 0.33096 0.12804 0.23924 0.00515 0.37753-0.33551 0.37753-0.21399 0-0.25842-0.022917-0.25842-0.13329zm0.99968-0.2999c0-0.52779 0.13767-0.5909 0.32704-0.14995l0.12164 0.28324 0.087111-0.2866c0.080197-0.26387 0.10323-0.28502 0.29018-0.26658 0.18249 0.018025 0.21389 0.056005 0.30982 0.37549l0.10674 0.35546 0.083274-0.37212c0.05352-0.23917 0.11729-0.37213 0.17847-0.37213 0.052349 0 0.095183 0.040942 0.095183 0.091024 0 0.17384-0.2848 0.77531-0.36711 0.77531-0.045512 0-0.14406-0.14245-0.21898-0.31656l-0.13622-0.31656-0.0054074 0.31656c-0.00399 0.23457-0.031286 0.31656-0.10537 0.31656-0.066962 0-0.10221-0.071584-0.10677-0.21659l-0.00682-0.2166-0.069485 0.2166c-0.076038 0.23704-0.28545 0.29907-0.33749 0.10004-0.029033-0.11111-0.030848-0.11111-0.038212 0-0.00425 0.064116-0.052722 0.11665-0.1077 0.11665-0.078613 0-0.099972-0.092569-0.099972-0.4332zm1.7234 0.00111c0.09678-0.23764 0.2042-0.42317 0.2387-0.41228 0.034504 0.0103 0.14559 0.20533 0.24684 0.43208 0.16867 0.37773 0.17384 0.41228 0.061657 0.41228-0.067348 0-0.13812-0.059996-0.15729-0.13328-0.01917-0.073257-0.085463-0.13329-0.1473-0.13329-0.06185 0-0.12813 0.059996-0.1473 0.13329-0.019171 0.073257-0.08805 0.13328-0.15306 0.13328-0.10723 0-0.10188-0.04004 0.057756-0.43208zm0.30003-0.00111c-0.021102-0.054975-0.046941-0.10004-0.057422-0.10004-0.010428 0-0.03632 0.044933-0.057421 0.10004-0.023136 0.060254-3.335e-4 0.10004 0.057421 0.10004 0.057756 0 0.080557-0.039654 0.057422-0.10004zm5.2417 0.14995c0.0013-0.13596 0.66629-0.55226 1.1285-0.70645 0.54522-0.18189 1.0617-0.18189 1.6069 0 0.46217 0.15419 1.1272 0.57049 1.1285 0.70645 0.0013 0.13849-0.16352 0.094629-0.46497-0.12373-0.33749-0.24448-1.1227-0.52605-1.4669-0.52605-0.34426 0-1.1295 0.28157-1.4669 0.52605-0.30145 0.21837-0.46628 0.26223-0.46497 0.12373zm179.64-0.060254c-0.0641-0.16697-5e-3 -1.39 0.0671-1.3899 0.0897 3.86e-5 0.1254 1.3348 0.038 1.4222-0.0448 0.044804-0.0794 0.034118-0.10493-0.032316zm12.592-0.011587c-0.0601-0.15666 3e-3 -1.3783 0.0713-1.3951 0.0407-0.0103 0.074 0.27637 0.0855 0.73344 0.0129 0.49734-5e-3 0.74976-0.0521 0.74976-0.039 0-0.0861-0.039654-0.10467-0.088063zm-12.582-1.8909c-0.0234-0.023432-0.0426-0.33752-0.0426-0.69797v-0.65534h0.73309c0.60721 0 0.7331 0.017123 0.7331 0.099908 0 0.081883-0.11471 0.10004-0.63313 0.10004h-0.63313v0.56255c0 0.51757-0.0485 0.69965-0.15732 0.59082zm12.598 0.00129c-0.0245-0.024462-0.0444-0.29318-0.0444-0.59721v-0.55279l-0.57777-0.019312c-0.38858-0.013003-0.5868-0.046478-0.60536-0.10261-0.0208-0.063086 0.14318-0.0833 0.67774-0.0833h0.70532v0.69978c0 0.64078-0.0326 0.77823-0.1555 0.65534zm-10.661-1.1974c-0.1254-0.1254 9e-3 -0.15775 0.65863-0.15775 0.53456 0 0.69864 0.020213 0.67772 0.0833-0.0301 0.091024-1.2517 0.15911-1.3364 0.074416zm1.8012 0.00129c-0.11613-0.11613 0.082-0.15949 0.72749-0.15949 0.53141 0 0.6947 0.020213 0.67376 0.0833-0.0297 0.089866-1.3175 0.15989-1.4012 0.076219zm1.9326-6.44e-5c-0.11703-0.11703 0.0855-0.15943 0.76087-0.15943 0.55808 0 0.72807 0.020085 0.70708 0.0833-0.0299 0.089866-1.384 0.16011-1.468 0.07609zm1.8642-0.00129c-0.13022-0.13022 0.0179-0.16037 0.70321-0.14314 0.44284 0.011587 0.74976 0.046092 0.74976 0.085488 0 0.075961-1.3799 0.13074-1.453 0.057679zm1.9328 1.417e-4c-0.1254-0.1254 9e-3 -0.15777 0.65864-0.15777 0.53456 0 0.69864 0.020213 0.67772 0.0833-0.0301 0.091025-1.2517 0.15912-1.3364 0.074416z" stroke-width=".066645"/>
</svg>
